<?xml version="1.0" standalone="no"?><svg data-noselect="" 
  viewBox="108.48253595059 50.999999999995026 632 474" 
  width="632" 
  height="474" 
  ref="svg_canvas" 
  preserveAspectRatio="none" 
  version="1.1" xmlns="http://www.w3.org/2000/svg" 
  style="background: #ffffff;">
    <defs></defs>
    <g id="shape_uHXI2sx1QE" class=""  ref="shape_uHXI2sx1QE" key="shape_uHXI2sx1QE" transform="translate(237,210.87690179806) rotate(0,80,77.123098201936) scale(1,1)" style="cursor:move;display:inline;opacity:1;" filter="">
            <g style="display:inline"><rect fill="rgba(0,0,0,0)" width="180" height="174.24619640387277" x="-10" y="-10"></rect><svg version="1.1" id="图层_1" xmlns="http://www.w3.org/2000/svg" xmlns:xlink="http://www.w3.org/1999/xlink" x="0px" y="0px" width="160" height="154.24619640387277" viewBox="0 0 144.6 139.4" enable-background="new 0 0 144.6 139.4" xml:space="preserve" class="style-removed" preserveAspectRatio="none" data-parent="shape_uHXI2sx1QE">
<g>
	<g>
		<path fill="#20AAE8" d="M60,139.4c-26.1,0-49.5-15.6-59.6-39.6c-1.1-2.7,0.1-5.9,2.9-7s5.9,0.1,7,2.9
			c8.4,20.1,27.9,33.1,49.7,33.1c21.5,0,40.9-12.8,49.5-32.5c1.2-2.7,4.3-4,7-2.8c2.7,1.2,4,4.3,2.8,7
			C109.1,124.1,85.8,139.4,60,139.4z" stroke-width="0"></path>
	</g>
	<g>
		<path fill="#0BE0BB" d="M13.1,44.1c-1.1,0-2.3-0.4-3.3-1.1c-2.3-1.8-2.8-5.2-1-7.5c12.3-16,31-25.2,51.2-25.2
			c20.2,0,38.8,9.2,51.2,25.2c1.8,2.3,1.4,5.7-1,7.5c-2.3,1.8-5.7,1.4-7.5-1C92.4,28.6,76.8,21,60,21c-16.8,0-32.4,7.7-42.7,21
			C16.3,43.4,14.7,44.1,13.1,44.1z" stroke-width="0"></path>
	</g>
	<g>
		<circle fill="#0BE0BB" cx="121.9" cy="23.1" r="11.1" stroke-width="0"></circle>
	</g>
	<g>
		<circle fill="#0BE0BB" cx="140.2" cy="4.5" r="4.5" stroke-width="0"></circle>
	</g>
</g>
</svg></g>
        </g><g id="shape_vxEaR2yv3a" class="brand_name"  ref="shape_vxEaR2yv3a" key="shape_vxEaR2yv3a" transform="translate(343.11253595059,201.95485338094002) rotate(0,158.64194643452998,127.10999999999999) scale(1,1)" style="cursor:move;display:inline;opacity:1;" filter="">
            <g style="display:inline"><svg xmlns="http://www.w3.org/2000/svg" version="1.1" xmlns:xlink="http://www.w3.org/1999/xlink" width="423.48" height="254.21999999999997" viewBox="0 0 423.48 254.21999999999997" preserveAspectRatio="none" data-parent="shape_vxEaR2yv3a"><rect fill="rgba(0,0,0,0)" width="282" height="42" x="35.37" y="106.10999999999999"></rect><g data-width="281.18942931241975" transform="translate(35.37, 0)"><path d="M20.72-26.29L24.94-26.29L24.94-8.36Q24.94-4.35 21.52-1.52L21.52-1.52Q18.06 1.31 13.16 1.31L13.16 1.31Q8.29 1.31 4.84-1.52L4.84-1.52Q1.38-4.35 1.38-8.36L1.38-8.36L1.38-26.29L5.60-26.29L5.60-9.60Q5.60-6.46 7.81-4.25L7.81-4.25Q10.05-2.04 13.16-2.04L13.16-2.04Q16.30-2.04 18.51-4.25L18.51-4.25Q20.72-6.46 20.72-9.60L20.72-9.60L20.72-26.29Z" transform="translate(0 140.10999999999999) " fill="rgb(7, 64, 157)" stroke="rgb(7, 64, 157)" stroke-width="0.059" data-glyph-w="31.320027736102197" data-glyph-h="34.541015625" data-glyph-ascender="30.39609375" data-glyph-descender="-4.144921875"></path><path d="M23.04-7.29Q23.04-3.63 19.90-1.21L19.90-1.21Q16.58 1.31 11.26 1.31L11.26 1.31Q4.35 1.31 0.69-3.49L0.69-3.49L2.94-5.28Q5.94-2.31 10.57-2.31L10.57-2.31Q14.20-2.31 16.44-3.73L16.44-3.73Q18.55-5.04 18.55-6.94L18.55-6.94Q18.55-8.95 15.96-10.02L15.96-10.02Q15.09-10.36 10.19-11.57L10.19-11.57Q6.22-12.54 4.42-13.85L4.42-13.85Q1.80-15.72 1.80-19.10L1.80-19.10Q1.80-22.42 4.56-24.56L4.56-24.56Q7.50-26.84 12.33-26.84L12.33-26.84Q18.24-26.84 21.66-22.73L21.66-22.73L19.45-20.93Q16.93-23.49 13.06-23.49L13.06-23.49Q9.84-23.49 7.88-22.21L7.88-22.21Q6.01-20.97 6.01-19.10L6.01-19.10Q6.01-17.41 8.67-16.41L8.67-16.41Q9.05-16.27 14.54-14.89L14.54-14.89Q18.48-13.89 20.38-12.50L20.38-12.50Q23.04-10.60 23.04-7.29L23.04-7.29Z" transform="translate(31.320027736102197 140.10999999999999) " fill="rgb(7, 64, 157)" stroke="rgb(7, 64, 157)" stroke-width="0.059" data-glyph-w="28.729451564227197" data-glyph-h="34.541015625" data-glyph-ascender="30.39609375" data-glyph-descender="-4.144921875"></path><path d="M13.71-26.29L1.38-26.29L1.38 0.79L13.71 0.79Q19.31 0.79 23.28-3.18L23.28-3.18Q27.25-7.15 27.25-12.75L27.25-12.75Q27.25-18.38 23.28-22.35L23.28-22.35Q19.31-26.29 13.71-26.29L13.71-26.29ZM5.60-2.04L5.60-23.49L12.30-23.49Q16.72-23.49 19.86-20.34L19.86-20.34Q23.00-17.20 23.00-12.75L23.00-12.75Q23.00-8.32 19.86-5.18L19.86-5.18Q16.72-2.04 12.30-2.04L12.30-2.04L5.60-2.04Z" transform="translate(60.049479300329395 140.10999999999999) " fill="rgb(7, 64, 157)" stroke="rgb(7, 64, 157)" stroke-width="0.059" data-glyph-w="32.9434554704772" data-glyph-h="34.541015625" data-glyph-ascender="30.39609375" data-glyph-descender="-4.144921875"></path><path d="M1.38-23.83L1.38-26.29L24.94-26.29L24.94-23.83L15.27-23.83L15.27 0.79L11.05 0.79L11.05-23.83L1.38-23.83Z" transform="translate(92.99293477080658 140.10999999999999) " fill="rgb(7, 64, 157)" stroke="rgb(7, 64, 157)" stroke-width="0.059" data-glyph-w="31.320027736102197" data-glyph-h="34.541015625" data-glyph-ascender="30.39609375" data-glyph-descender="-4.144921875"></path><path d="M14.75-26.84Q20.83-26.84 25.01-22.42L25.01-22.42L23.07-20.52Q19.96-23.49 15.68-23.49L15.68-23.49Q11.23-23.49 8.08-20.34L8.08-20.34Q4.94-17.20 4.94-12.75L4.94-12.75Q4.94-8.32 8.08-5.18L8.08-5.18Q11.23-2.04 15.68-2.04L15.68-2.04Q19.96-2.04 23.07-4.97L23.07-4.97L25.01-3.11Q20.83 1.31 14.75 1.31L14.75 1.31Q8.95 1.31 4.80-2.80L4.80-2.80Q0.69-6.91 0.69-12.75L0.69-12.75Q0.69-18.58 4.80-22.69L4.80-22.69Q8.95-26.84 14.75-26.84L14.75-26.84Z" transform="translate(124.31296250690878 140.10999999999999) " fill="rgb(7, 64, 157)" stroke="rgb(7, 64, 157)" stroke-width="0.059" data-glyph-w="31.0436996111022" data-glyph-h="34.541015625" data-glyph-ascender="30.39609375" data-glyph-descender="-4.144921875"></path><path d="M1.38-26.29L1.38 0.79L20.66 0.79L20.66-1.66L5.60-1.66L5.60-26.29L1.38-26.29Z" transform="translate(155.35666211801097 140.10999999999999) " fill="rgb(7, 64, 157)" stroke="rgb(7, 64, 157)" stroke-width="0.059" data-glyph-w="27.036941798602193" data-glyph-h="34.541015625" data-glyph-ascender="30.39609375" data-glyph-descender="-4.144921875"></path><path d="M14.75-24.39L14.75-24.39Q10.67-24.39 7.81-21.00L7.81-21.00Q4.90-17.58 4.90-12.78L4.90-12.78Q4.90-7.98 7.81-4.59L7.81-4.59Q10.67-1.17 14.75-1.17L14.75-1.17Q18.82-1.17 21.73-4.59L21.73-4.59Q24.59-7.98 24.59-12.78L24.59-12.78Q24.59-17.58 21.73-21.00L21.73-21.00Q18.82-24.39 14.75-24.39ZM14.75-26.87Q20.59-26.87 24.70-22.73L24.70-22.73Q28.84-18.62 28.84-12.78L28.84-12.78Q28.84-6.94 24.70-2.83L24.70-2.83Q20.59 1.28 14.75 1.28L14.75 1.28Q8.91 1.28 4.80-2.83L4.80-2.83Q0.69-6.94 0.69-12.78L0.69-12.78Q0.69-18.62 4.80-22.73L4.80-22.73Q8.91-26.87 14.75-26.87L14.75-26.87Z" transform="translate(182.39360391661316 140.10999999999999) " fill="rgb(7, 64, 157)" stroke="rgb(7, 64, 157)" stroke-width="0.059" data-glyph-w="34.532342189227194" data-glyph-h="34.541015625" data-glyph-ascender="30.39609375" data-glyph-descender="-4.144921875"></path><path d="M20.72-26.29L24.94-26.29L24.94-8.36Q24.94-4.35 21.52-1.52L21.52-1.52Q18.06 1.31 13.16 1.31L13.16 1.31Q8.29 1.31 4.84-1.52L4.84-1.52Q1.38-4.35 1.38-8.36L1.38-8.36L1.38-26.29L5.60-26.29L5.60-9.60Q5.60-6.46 7.81-4.25L7.81-4.25Q10.05-2.04 13.16-2.04L13.16-2.04Q16.30-2.04 18.51-4.25L18.51-4.25Q20.72-6.46 20.72-9.60L20.72-9.60L20.72-26.29Z" transform="translate(216.92594610584035 140.10999999999999) " fill="rgb(7, 64, 157)" stroke="rgb(7, 64, 157)" stroke-width="0.059" data-glyph-w="31.320027736102197" data-glyph-h="34.541015625" data-glyph-ascender="30.39609375" data-glyph-descender="-4.144921875"></path><path d="M13.71-26.29L1.38-26.29L1.38 0.79L13.71 0.79Q19.31 0.79 23.28-3.18L23.28-3.18Q27.25-7.15 27.25-12.75L27.25-12.75Q27.25-18.38 23.28-22.35L23.28-22.35Q19.31-26.29 13.71-26.29L13.71-26.29ZM5.60-2.04L5.60-23.49L12.30-23.49Q16.72-23.49 19.86-20.34L19.86-20.34Q23.00-17.20 23.00-12.75L23.00-12.75Q23.00-8.32 19.86-5.18L19.86-5.18Q16.72-2.04 12.30-2.04L12.30-2.04L5.60-2.04Z" transform="translate(248.24597384194254 140.10999999999999) " fill="rgb(7, 64, 157)" stroke="rgb(7, 64, 157)" stroke-width="0.059" data-glyph-w="32.9434554704772" data-glyph-h="34.541015625" data-glyph-ascender="30.39609375" data-glyph-descender="-4.144921875"></path></g></svg></g>
        </g><g id="shape_CFooDHeLcq" class="brand_slogan"  ref="shape_CFooDHeLcq" key="shape_CFooDHeLcq" transform="translate(136.48253595059,96.06485338094001) rotate(0,283.33159614158,188) scale(1,1)" style="cursor:move;display:inline;opacity:1;" filter="">
            <g style="display:inline"><svg xmlns="http://www.w3.org/2000/svg" version="1.1" xmlns:xlink="http://www.w3.org/1999/xlink" width="557" height="376" viewBox="0 0 557 376" preserveAspectRatio="none" data-parent="shape_CFooDHeLcq"><rect fill="rgba(0,0,0,0)" width="349" height="62" x="52" y="157"></rect><g data-width="348.9200000000001" transform="translate(52, 0)"><path d="M2.13-35.78L10.50-35.78L10.50-9.78Q10.50-8.06 11.73-6.84Q12.95-5.62 14.72-5.62L14.72-5.62L23.92-5.62Q25.69-5.62 26.91-6.84Q28.13-8.06 28.13-9.78L28.13-9.78L28.13-35.78L36.50-35.78L36.50-8.16Q36.50-5.98 35.39-4.11Q34.27-2.24 32.40-1.12Q30.52 0 28.34 0L28.34 0L10.30 0Q8.06 0 6.19-1.09Q4.32-2.18 3.22-4.08Q2.13-5.98 2.13-8.16L2.13-8.16L2.13-35.78Z" transform="translate(0 208) skewX(0)" fill="rgb(7, 64, 157)" stroke="rgb(7, 64, 157)" stroke-width="0.087" data-glyph-w="38.636" data-glyph-h="62.400000000000006" data-glyph-ascender="52.00000000000001" data-glyph-descender="-10.4"></path><path d="M25.69-20.90Q28.50-20.90 30.89-19.50Q33.28-18.10 34.68-15.70Q36.09-13.31 36.09-10.45L36.09-10.45Q36.09-7.59 34.68-5.20Q33.28-2.81 30.89-1.40Q28.50 0 25.69 0L25.69 0L3.22 0L3.22-5.62L22.88-5.62Q24.91-5.62 26.34-7.02Q27.77-8.42 27.77-10.45L27.77-10.45Q27.77-12.48 26.34-13.88Q24.91-15.29 22.88-15.29L22.88-15.29L12.01-15.29Q9.20-15.29 6.86-16.67Q4.52-18.04 3.15-20.41Q1.77-22.78 1.77-25.53L1.77-25.53Q1.77-28.34 3.15-30.68Q4.52-33.02 6.86-34.40Q9.20-35.78 12.01-35.78L12.01-35.78L34.01-35.78L34.01-30.21L14.77-30.21Q12.84-30.21 11.47-28.83Q10.09-27.46 10.09-25.53L10.09-25.53Q10.09-23.61 11.47-22.26Q12.84-20.90 14.77-20.90L14.77-20.90L25.69-20.90Z" transform="translate(38.636 208) skewX(0)" fill="rgb(7, 64, 157)" stroke="rgb(7, 64, 157)" stroke-width="0.087" data-glyph-w="37.856" data-glyph-h="62.400000000000006" data-glyph-ascender="52.00000000000001" data-glyph-descender="-10.4"></path><path d="M2.13-35.78L24.02-35.78Q27.40-35.78 30.26-34.11Q33.12-32.45 34.79-29.59Q36.45-26.73 36.45-23.35L36.45-23.35L36.45-12.43Q36.45-9.05 34.79-6.19Q33.12-3.33 30.26-1.66Q27.40 0 24.02 0L24.02 0L2.13 0L2.13-35.78ZM21.27-5.62Q23.09-5.62 24.67-6.53Q26.26-7.44 27.17-9.02Q28.08-10.61 28.08-12.43L28.08-12.43L28.08-23.35Q28.08-25.22 27.17-26.81Q26.26-28.39 24.67-29.30Q23.09-30.21 21.27-30.21L21.27-30.21L10.45-30.21L10.45-5.62L21.27-5.62Z" transform="translate(76.492 208) skewX(0)" fill="rgb(7, 64, 157)" stroke="rgb(7, 64, 157)" stroke-width="0.087" data-glyph-w="38.584" data-glyph-h="62.400000000000006" data-glyph-ascender="52.00000000000001" data-glyph-descender="-10.4"></path><path d="M0.57-35.83L34.94-35.83L34.94-30.21L21.94-30.21L21.94 0L13.57 0L13.57-30.21L0.57-30.21L0.57-35.83Z" transform="translate(115.07600000000001 208) skewX(0)" fill="rgb(7, 64, 157)" stroke="rgb(7, 64, 157)" stroke-width="0.087" data-glyph-w="35.516000000000005" data-glyph-h="62.400000000000006" data-glyph-ascender="52.00000000000001" data-glyph-descender="-10.4"></path><path d="M10.19-6.55L10.19 0L3.64 0L3.64-6.55L10.19-6.55Z" transform="translate(150.592 208) skewX(0)" fill="rgb(7, 64, 157)" stroke="rgb(7, 64, 157)" stroke-width="0.087" data-glyph-w="13.832" data-glyph-h="62.400000000000006" data-glyph-ascender="52.00000000000001" data-glyph-descender="-10.4"></path><path d="M36.45-5.62L36.45 0L12.74 0Q9.83 0 7.41-1.43Q4.99-2.86 3.56-5.30Q2.13-7.75 2.13-10.61L2.13-10.61L2.13-25.22Q2.13-28.08 3.56-30.50Q4.99-32.92 7.41-34.35Q9.83-35.78 12.74-35.78L12.74-35.78L36.45-35.78L36.45-30.21L15.55-30.21Q13.47-30.21 12.01-28.78Q10.56-27.35 10.56-25.22L10.56-25.22L10.56-10.61Q10.56-8.53 12.01-7.07Q13.47-5.62 15.55-5.62L15.55-5.62L36.45-5.62Z" transform="translate(164.424 208) skewX(0)" fill="rgb(7, 64, 157)" stroke="rgb(7, 64, 157)" stroke-width="0.087" data-glyph-w="38.584" data-glyph-h="62.400000000000006" data-glyph-ascender="52.00000000000001" data-glyph-descender="-10.4"></path><path d="M29.12-5.62L29.12 0L14.40 0Q11.08 0 8.24-1.66Q5.41-3.33 3.77-6.14Q2.13-8.94 2.13-12.27L2.13-12.27L2.13-35.78L10.50-35.78L10.50-12.27Q10.50-9.52 12.45-7.57Q14.40-5.62 17.16-5.62L17.16-5.62L29.12-5.62Z" transform="translate(203.008 208) skewX(0)" fill="rgb(7, 64, 157)" stroke="rgb(7, 64, 157)" stroke-width="0.087" data-glyph-w="30.108000000000004" data-glyph-h="62.400000000000006" data-glyph-ascender="52.00000000000001" data-glyph-descender="-10.4"></path><path d="M2.13-27.66Q2.13-29.85 3.22-31.72Q4.32-33.59 6.19-34.68Q8.06-35.78 10.24-35.78L10.24-35.78L28.29-35.78Q30.52-35.78 32.40-34.68Q34.27-33.59 35.36-31.72Q36.45-29.85 36.45-27.66L36.45-27.66L36.45-8.16Q36.45-5.98 35.36-4.08Q34.27-2.18 32.40-1.09Q30.52 0 28.29 0L28.29 0L10.24 0Q8.06 0 6.19-1.12Q4.32-2.24 3.22-4.11Q2.13-5.98 2.13-8.16L2.13-8.16L2.13-27.66ZM23.92-5.62Q25.64-5.62 26.86-6.84Q28.08-8.06 28.08-9.78L28.08-9.78L28.08-26.00Q28.08-27.77 26.86-28.99Q25.64-30.21 23.92-30.21L23.92-30.21L14.66-30.21Q12.90-30.21 11.67-28.99Q10.45-27.77 10.45-26.00L10.45-26.00L10.45-9.78Q10.45-8.06 11.67-6.84Q12.90-5.62 14.66-5.62L14.66-5.62L23.92-5.62Z" transform="translate(233.116 208) skewX(0)" fill="rgb(7, 64, 157)" stroke="rgb(7, 64, 157)" stroke-width="0.087" data-glyph-w="38.584" data-glyph-h="62.400000000000006" data-glyph-ascender="52.00000000000001" data-glyph-descender="-10.4"></path><path d="M2.13-35.78L10.50-35.78L10.50-9.78Q10.50-8.06 11.73-6.84Q12.95-5.62 14.72-5.62L14.72-5.62L23.92-5.62Q25.69-5.62 26.91-6.84Q28.13-8.06 28.13-9.78L28.13-9.78L28.13-35.78L36.50-35.78L36.50-8.16Q36.50-5.98 35.39-4.11Q34.27-2.24 32.40-1.12Q30.52 0 28.34 0L28.34 0L10.30 0Q8.06 0 6.19-1.09Q4.32-2.18 3.22-4.08Q2.13-5.98 2.13-8.16L2.13-8.16L2.13-35.78Z" transform="translate(271.70000000000005 208) skewX(0)" fill="rgb(7, 64, 157)" stroke="rgb(7, 64, 157)" stroke-width="0.087" data-glyph-w="38.636" data-glyph-h="62.400000000000006" data-glyph-ascender="52.00000000000001" data-glyph-descender="-10.4"></path><path d="M2.13-35.78L24.02-35.78Q27.40-35.78 30.26-34.11Q33.12-32.45 34.79-29.59Q36.45-26.73 36.45-23.35L36.45-23.35L36.45-12.43Q36.45-9.05 34.79-6.19Q33.12-3.33 30.26-1.66Q27.40 0 24.02 0L24.02 0L2.13 0L2.13-35.78ZM21.27-5.62Q23.09-5.62 24.67-6.53Q26.26-7.44 27.17-9.02Q28.08-10.61 28.08-12.43L28.08-12.43L28.08-23.35Q28.08-25.22 27.17-26.81Q26.26-28.39 24.67-29.30Q23.09-30.21 21.27-30.21L21.27-30.21L10.45-30.21L10.45-5.62L21.27-5.62Z" transform="translate(310.33600000000007 208) skewX(0)" fill="rgb(7, 64, 157)" stroke="rgb(7, 64, 157)" stroke-width="0.087" data-glyph-w="38.584" data-glyph-h="62.400000000000006" data-glyph-ascender="52.00000000000001" data-glyph-descender="-10.4"></path></g></svg></g>
        </g>
  </svg>