<?xml version="1.0" standalone="no"?><svg data-noselect="" 
  viewBox="-5.354341057927996 -73.991719636255 980.642520142168 735" 
  width="980.642520142168" 
  height="735" 
  ref="svg_canvas" 
  preserveAspectRatio="none" 
  version="1.1" xmlns="http://www.w3.org/2000/svg" 
  style="background: #ffffff;">
    <defs></defs>
    <g id="shape_RjeoWMNiCZ" class=""  ref="shape_RjeoWMNiCZ" key="shape_RjeoWMNiCZ" transform="translate(74.645658942072,191.38107005774) rotate(0,104.81636780168,97.846079342867) scale(1,1)" style="cursor:move;display:inline;opacity:1;" filter="">
            <g style="display:inline"><rect fill="rgba(0,0,0,0)" width="229.63273560336" height="215.69215868573" x="-10" y="-10"></rect><svg version="1.1" id="图层_1" xmlns="http://www.w3.org/2000/svg" xmlns:xlink="http://www.w3.org/1999/xlink" x="0px" y="0px" width="209.63273560336" height="195.69215868573" viewBox="0 0 200 186.7" style="enable-background:new 0 0 200 186.7;" xml:space="preserve" class="style-removed" preserveAspectRatio="none" data-parent="shape_RjeoWMNiCZ">

<g>
	
		<rect x="24.3" y="24.3" transform="matrix(0.7071 0.7071 -0.7071 0.7071 82.8427 -34.3146)" width="117.2" height="117.2" fill="#35B2FF" stroke-width="0"></rect>
	<rect x="45.7" y="34.1" transform="matrix(0.866 -0.5 0.5 0.866 -32.3614 64.5574)" width="117.2" height="117.2" fill="#3482F6" stroke-width="0"></rect>
	
		<rect x="65.7" y="49.4" transform="matrix(0.9659 -0.2588 0.2588 0.9659 -23.7033 35.8401)" width="117.2" height="117.2" fill="#1C5CBC" stroke-width="0"></rect>
	<rect x="82.8" y="69.5" width="117.2" height="117.2" fill="#123D7F" stroke-width="0"></rect>
</g>
</svg></g>
        </g><g id="shape_xILFs9B9XB" class="brand_first"  ref="shape_xILFs9B9XB" key="shape_xILFs9B9XB" transform="translate(51.74078245691,-133.80450933025) rotate(0,214.20652908929,453.417282448634) scale(1,1)" style="cursor:move;display:inline;opacity:1;" filter="">
            <g style="display:inline"><svg xmlns="http://www.w3.org/2000/svg" version="1.1" xmlns:xlink="http://www.w3.org/1999/xlink" width="597.44" height="907.8800000000001" viewBox="0 0 597.44 907.8800000000001" preserveAspectRatio="none" data-parent="shape_xILFs9B9XB"><rect fill="rgba(0,0,0,0)" width="94" height="151" x="125.86" y="378.44"></rect><g data-width="93.51398" transform="translate(126.10301, 0)"><path d="M5.16-86.59L25.42-86.59L25.42-23.66Q25.42-19.51 28.38-16.55Q31.34-13.59 35.62-13.59L35.62-13.59L57.90-13.59Q62.17-13.59 65.13-16.55Q68.09-19.51 68.09-23.66L68.09-23.66L68.09-86.59L88.35-86.59L88.35-19.76Q88.35-14.47 85.65-9.94Q82.94-5.41 78.41-2.71Q73.88 0 68.59 0L68.59 0L24.92 0Q19.51 0 14.98-2.64Q10.45-5.29 7.80-9.88Q5.16-14.47 5.16-19.76L5.16-19.76L5.16-86.59Z" transform="translate(0 503.44) " fill="rgb(255, 255, 255)" stroke="rgb(255, 255, 255)" stroke-width="0.21" data-glyph-w="93.51398" data-glyph-h="151.032" data-glyph-ascender="125.86" data-glyph-descender="-25.172"></path></g></svg></g>
        </g><g id="shape_FDBi16VXUI" class="brand_name"  ref="shape_FDBi16VXUI" key="shape_FDBi16VXUI" transform="translate(197.28817908424003,-46.95644850375001) rotate(0,316.96692418722,360) scale(1,1)" style="cursor:move;display:inline;opacity:1;" filter="">
            <g style="display:inline"><svg xmlns="http://www.w3.org/2000/svg" version="1.1" xmlns:xlink="http://www.w3.org/1999/xlink" width="998" height="720" viewBox="0 0 998 720" preserveAspectRatio="none" data-parent="shape_FDBi16VXUI"><rect fill="rgba(0,0,0,0)" width="598" height="120" x="100" y="300"></rect><g data-width="597.7" transform="translate(100, 0)"><path d="M6-66.70L20.10-66.70L20.10-26.70Q20.10-21.90 20.90-19.25Q21.70-16.60 23.60-14.70L23.60-14.70Q27.80-10.60 35.30-10.60L35.30-10.60Q40.10-10.60 43.65-12.25Q47.20-13.90 48.60-16.70L48.60-16.70Q50-19.50 50-26.70L50-26.70L50-66.70L64.20-66.70L64.20-27.40Q64.20-19.60 62.55-14.55Q60.90-9.50 57.50-6.40L57.50-6.40Q49.60 0.50 35.10 0.50L35.10 0.50Q19.60 0.50 12.50-6.30L12.50-6.30Q8.80-9.80 7.40-14.15Q6-18.50 6-26.40L6-26.40L6-66.70Z" transform="translate(0 395) " fill="#3482F6" stroke="#3482F6" stroke-width="0.167" data-glyph-w="70.3" data-glyph-h="100" data-glyph-ascender="85.9" data-glyph-descender="-14.100000000000001"></path><path d="M40 0L6.50 0L6.50-11.90L37-11.90Q44.30-11.90 46.70-13.30L46.70-13.30Q50.20-15.40 50.20-19.60L50.20-19.60Q50.20-24.50 46.10-26.70L46.10-26.70Q43.80-28 38.70-28L38.70-28L26.30-28Q15-28 10-32.10L10-32.10Q6.90-34.70 5.15-38.60Q3.40-42.50 3.40-47L3.40-47Q3.40-54 7.50-59.80L7.50-59.80Q11.50-65.40 20.30-66.40L20.30-66.40Q23.30-66.70 29.20-66.70L29.20-66.70L62.30-66.70L62.30-54.80L32.40-54.80Q25.70-54.70 23.50-54.20L23.50-54.20Q19-53.10 19-47.40L19-47.40Q19-42.60 22.80-41L22.80-41Q25.30-39.80 31.20-39.80L31.20-39.80L41.90-39.80Q50.10-39.80 54.10-38.40L54.10-38.40Q61.20-36 63.90-30L63.90-30Q66-25.20 66-19.70L66-19.70Q66-13.60 63.20-8.80L63.20-8.80Q59.30-2 51.50-0.60L51.50-0.60Q47.70 0 40 0L40 0Z" transform="translate(70.3 395) " fill="#3482F6" stroke="#3482F6" stroke-width="0.167" data-glyph-w="69.5" data-glyph-h="100" data-glyph-ascender="85.9" data-glyph-descender="-14.100000000000001"></path><path d="M6.80 0L6.80-66.70L35.10-66.70Q45.70-66.70 51.50-64.60L51.50-64.60Q62.20-60.70 65.80-50.30L65.80-50.30Q68.50-42.30 68.50-33.20L68.50-33.20Q68.50-24.20 65.90-16.20L65.90-16.20Q63.30-8 57.30-4.10L57.30-4.10Q53.50-1.70 48.95-0.85Q44.40 0 35.10 0L35.10 0L6.80 0ZM35.10-54.80L21-54.80L21-11.90L35.10-11.90Q44.40-11.90 48-16L48-16Q50.20-18.60 51.55-23.30Q52.90-28 52.90-33.30L52.90-33.30Q52.90-39.20 51.30-44.10Q49.70-49 47.10-51.40L47.10-51.40Q43.30-54.80 35.10-54.80L35.10-54.80Z" transform="translate(139.8 395) " fill="#3482F6" stroke="#3482F6" stroke-width="0.167" data-glyph-w="71.60000000000001" data-glyph-h="100" data-glyph-ascender="85.9" data-glyph-descender="-14.100000000000001"></path><path d="M21.60 0L21.60-54.80L0.40-54.80L0.40-66.70L57.90-66.70L57.90-54.80L35.80-54.80L35.80 0L21.60 0Z" transform="translate(211.40000000000003 395) " fill="#3482F6" stroke="#3482F6" stroke-width="0.167" data-glyph-w="58.400000000000006" data-glyph-h="100" data-glyph-ascender="85.9" data-glyph-descender="-14.100000000000001"></path><path d="M37.10-11.90L57.50-11.90L57.50 0L34.20 0Q27.60 0 24.10-0.70L24.10-0.70Q11.80-3.10 6.60-14.40L6.60-14.40Q3.20-22 3.20-33.20L3.20-33.20Q3.20-46.60 8.40-55L8.40-55Q12.20-61.10 18.55-63.90Q24.90-66.70 34.90-66.70L34.90-66.70L57.50-66.70L57.50-54.80L36.50-54.80Q27-54.80 22.60-49.70L22.60-49.70Q18.90-45.50 18.90-34.50L18.90-34.50Q18.90-19.70 24.60-15.10L24.60-15.10Q28.60-11.90 37.10-11.90L37.10-11.90Z" transform="translate(269.80000000000007 395) " fill="#3482F6" stroke="#3482F6" stroke-width="0.167" data-glyph-w="60.6" data-glyph-h="100" data-glyph-ascender="85.9" data-glyph-descender="-14.100000000000001"></path><path d="M6-29.20L6-66.70L20.10-66.70L20.10-29.20Q20.40-22.10 20.70-19.80L20.70-19.80Q21.40-15.20 25.10-13.55Q28.80-11.90 38.10-11.90L38.10-11.90L51.70-11.90L51.70 0L36.60 0Q25.90 0 21.10-1.20L21.10-1.20Q10.10-4.40 7.10-15.20L7.10-15.20Q6-19.40 6-29.20L6-29.20Z" transform="translate(330.4000000000001 395) " fill="#3482F6" stroke="#3482F6" stroke-width="0.167" data-glyph-w="53.2" data-glyph-h="100" data-glyph-ascender="85.9" data-glyph-descender="-14.100000000000001"></path><path d="M36.10-67.10L36.10-67.10Q46.10-67.10 53.70-63.70L53.70-63.70Q62.60-59.60 66.20-50L66.20-50Q69-42.50 69-32.40L69-32.40Q69-22.20 65.60-14.70L65.60-14.70Q61.30-5.80 52.40-2.20L52.40-2.20Q45.80 0.40 37.20 0.40L37.20 0.40Q25.90 0.40 17.60-3.80L17.60-3.80Q10.60-7.30 6.90-14.80Q3.20-22.30 3.20-33L3.20-33Q3.20-52.10 12.70-60.20L12.70-60.20Q20.70-67 36.10-67.10ZM36.20-55.90L36.20-55.90Q26.40-55.90 22.20-49.50L22.20-49.50Q18.80-44.50 18.80-33.40L18.80-33.40Q18.80-21.70 23-16.20L23-16.20Q27.20-10.80 36.30-10.80L36.30-10.80Q45.10-10.80 49.25-16.30Q53.40-21.80 53.40-33.30L53.40-33.30Q53.40-43.80 50-49.30L50-49.30Q46.10-55.80 36.20-55.90Z" transform="translate(383.6000000000001 395) " fill="#3482F6" stroke="#3482F6" stroke-width="0.167" data-glyph-w="72.2" data-glyph-h="100" data-glyph-ascender="85.9" data-glyph-descender="-14.100000000000001"></path><path d="M6-66.70L20.10-66.70L20.10-26.70Q20.10-21.90 20.90-19.25Q21.70-16.60 23.60-14.70L23.60-14.70Q27.80-10.60 35.30-10.60L35.30-10.60Q40.10-10.60 43.65-12.25Q47.20-13.90 48.60-16.70L48.60-16.70Q50-19.50 50-26.70L50-26.70L50-66.70L64.20-66.70L64.20-27.40Q64.20-19.60 62.55-14.55Q60.90-9.50 57.50-6.40L57.50-6.40Q49.60 0.50 35.10 0.50L35.10 0.50Q19.60 0.50 12.50-6.30L12.50-6.30Q8.80-9.80 7.40-14.15Q6-18.50 6-26.40L6-26.40L6-66.70Z" transform="translate(455.80000000000007 395) " fill="#3482F6" stroke="#3482F6" stroke-width="0.167" data-glyph-w="70.3" data-glyph-h="100" data-glyph-ascender="85.9" data-glyph-descender="-14.100000000000001"></path><path d="M6.80 0L6.80-66.70L35.10-66.70Q45.70-66.70 51.50-64.60L51.50-64.60Q62.20-60.70 65.80-50.30L65.80-50.30Q68.50-42.30 68.50-33.20L68.50-33.20Q68.50-24.20 65.90-16.20L65.90-16.20Q63.30-8 57.30-4.10L57.30-4.10Q53.50-1.70 48.95-0.85Q44.40 0 35.10 0L35.10 0L6.80 0ZM35.10-54.80L21-54.80L21-11.90L35.10-11.90Q44.40-11.90 48-16L48-16Q50.20-18.60 51.55-23.30Q52.90-28 52.90-33.30L52.90-33.30Q52.90-39.20 51.30-44.10Q49.70-49 47.10-51.40L47.10-51.40Q43.30-54.80 35.10-54.80L35.10-54.80Z" transform="translate(526.1 395) " fill="#3482F6" stroke="#3482F6" stroke-width="0.167" data-glyph-w="71.60000000000001" data-glyph-h="100" data-glyph-ascender="85.9" data-glyph-descender="-14.100000000000001"></path></g></svg></g>
        </g><g id="shape_yivoiQRHn2" class="brand_slogan"  ref="shape_yivoiQRHn2" key="shape_yivoiQRHn2" transform="translate(272.86801423731004,259.60871604725) rotate(0,241.38708903416,112.82) scale(1,1)" style="cursor:move;display:inline;opacity:1;" filter="">
            <g style="display:inline"><svg xmlns="http://www.w3.org/2000/svg" version="1.1" xmlns:xlink="http://www.w3.org/1999/xlink" width="361.32" height="225.64" viewBox="0 0 361.32 225.64" preserveAspectRatio="none" data-parent="shape_yivoiQRHn2"><rect fill="rgba(0,0,0,0)" width="236" height="37" x="31.33" y="94.32"></rect><g data-width="235.57606326035614" transform="translate(31.33, 0)"><path d="M1.28-21.56L6.33-21.56L6.33-5.89Q6.33-4.86 7.06-4.12Q7.80-3.38 8.87-3.38L8.87-3.38L14.41-3.38Q15.48-3.38 16.21-4.12Q16.95-4.86 16.95-5.89L16.95-5.89L16.95-21.56L21.99-21.56L21.99-4.92Q21.99-3.60 21.32-2.48Q20.65-1.35 19.52-0.67Q18.39 0 17.07 0L17.07 0L6.20 0Q4.86 0 3.73-0.66Q2.60-1.32 1.94-2.46Q1.28-3.60 1.28-4.92L1.28-4.92L1.28-21.56Z" transform="translate(0 125.32) " fill="rgb(181, 181, 182)" stroke="rgb(181, 181, 182)" stroke-width="0.052" data-glyph-w="25.813366326035613" data-glyph-h="37.596" data-glyph-ascender="31.33" data-glyph-descender="-6.265999999999999"></path><path d="M15.48-12.59Q17.17-12.59 18.61-11.75Q20.05-10.90 20.90-9.46Q21.74-8.02 21.74-6.30L21.74-6.30Q21.74-4.57 20.90-3.13Q20.05-1.69 18.61-0.85Q17.17 0 15.48 0L15.48 0L1.94 0L1.94-3.38L13.79-3.38Q15.01-3.38 15.87-4.23Q16.73-5.08 16.73-6.30L16.73-6.30Q16.73-7.52 15.87-8.37Q15.01-9.21 13.79-9.21L13.79-9.21L7.24-9.21Q5.55-9.21 4.14-10.04Q2.73-10.87 1.90-12.30Q1.07-13.72 1.07-15.38L1.07-15.38Q1.07-17.07 1.90-18.48Q2.73-19.89 4.14-20.72Q5.55-21.56 7.24-21.56L7.24-21.56L20.49-21.56L20.49-18.20L8.90-18.20Q7.74-18.20 6.91-17.37Q6.08-16.54 6.08-15.38L6.08-15.38Q6.08-14.22 6.91-13.41Q7.74-12.59 8.90-12.59L8.90-12.59L15.48-12.59Z" transform="translate(25.813366326035613 125.32) " fill="rgb(181, 181, 182)" stroke="rgb(181, 181, 182)" stroke-width="0.052" data-glyph-w="25.343416326035616" data-glyph-h="37.596" data-glyph-ascender="31.33" data-glyph-descender="-6.265999999999999"></path><path d="M1.28-21.56L14.47-21.56Q16.51-21.56 18.23-20.55Q19.96-19.55 20.96-17.83Q21.96-16.10 21.96-14.07L21.96-14.07L21.96-7.49Q21.96-5.45 20.96-3.73Q19.96-2.01 18.23-1.00Q16.51 0 14.47 0L14.47 0L1.28 0L1.28-21.56ZM12.81-3.38Q13.91-3.38 14.87-3.93Q15.82-4.48 16.37-5.44Q16.92-6.39 16.92-7.49L16.92-7.49L16.92-14.07Q16.92-15.20 16.37-16.15Q15.82-17.11 14.87-17.65Q13.91-18.20 12.81-18.20L12.81-18.20L6.30-18.20L6.30-3.38L12.81-3.38Z" transform="translate(51.15678265207123 125.32) " fill="rgb(181, 181, 182)" stroke="rgb(181, 181, 182)" stroke-width="0.052" data-glyph-w="25.782036326035616" data-glyph-h="37.596" data-glyph-ascender="31.33" data-glyph-descender="-6.265999999999999"></path><path d="M0.34-21.59L21.05-21.59L21.05-18.20L13.22-18.20L13.22 0L8.18 0L8.18-18.20L0.34-18.20L0.34-21.59Z" transform="translate(76.93881897810684 125.32) " fill="rgb(181, 181, 182)" stroke="rgb(181, 181, 182)" stroke-width="0.052" data-glyph-w="23.933566326035617" data-glyph-h="37.596" data-glyph-ascender="31.33" data-glyph-descender="-6.265999999999999"></path><path d="M6.14-3.95L6.14 0L2.19 0L2.19-3.95L6.14-3.95Z" transform="translate(100.87238530414245 125.32) " fill="rgb(181, 181, 182)" stroke="rgb(181, 181, 182)" stroke-width="0.052" data-glyph-w="10.868956326035615" data-glyph-h="37.596" data-glyph-ascender="31.33" data-glyph-descender="-6.265999999999999"></path><path d="M21.96-3.38L21.96 0L7.68 0Q5.92 0 4.46-0.86Q3.01-1.72 2.15-3.20Q1.28-4.67 1.28-6.39L1.28-6.39L1.28-15.20Q1.28-16.92 2.15-18.38Q3.01-19.83 4.46-20.69Q5.92-21.56 7.68-21.56L7.68-21.56L21.96-21.56L21.96-18.20L9.37-18.20Q8.11-18.20 7.24-17.34Q6.36-16.48 6.36-15.20L6.36-15.20L6.36-6.39Q6.36-5.14 7.24-4.26Q8.11-3.38 9.37-3.38L9.37-3.38L21.96-3.38Z" transform="translate(111.74134163017807 125.32) " fill="rgb(181, 181, 182)" stroke="rgb(181, 181, 182)" stroke-width="0.052" data-glyph-w="25.782036326035616" data-glyph-h="37.596" data-glyph-ascender="31.33" data-glyph-descender="-6.265999999999999"></path><path d="M17.54-3.38L17.54 0L8.68 0Q6.67 0 4.97-1.00Q3.26-2.01 2.27-3.70Q1.28-5.39 1.28-7.39L1.28-7.39L1.28-21.56L6.33-21.56L6.33-7.39Q6.33-5.73 7.50-4.56Q8.68-3.38 10.34-3.38L10.34-3.38L17.54-3.38Z" transform="translate(137.5233779562137 125.32) " fill="rgb(181, 181, 182)" stroke="rgb(181, 181, 182)" stroke-width="0.052" data-glyph-w="20.675246326035612" data-glyph-h="37.596" data-glyph-ascender="31.33" data-glyph-descender="-6.265999999999999"></path><path d="M1.28-16.67Q1.28-17.98 1.94-19.11Q2.60-20.24 3.73-20.90Q4.86-21.56 6.17-21.56L6.17-21.56L17.04-21.56Q18.39-21.56 19.52-20.90Q20.65-20.24 21.30-19.11Q21.96-17.98 21.96-16.67L21.96-16.67L21.96-4.92Q21.96-3.60 21.30-2.46Q20.65-1.32 19.52-0.66Q18.39 0 17.04 0L17.04 0L6.17 0Q4.86 0 3.73-0.67Q2.60-1.35 1.94-2.48Q1.28-3.60 1.28-4.92L1.28-4.92L1.28-16.67ZM14.41-3.38Q15.45-3.38 16.18-4.12Q16.92-4.86 16.92-5.89L16.92-5.89L16.92-15.66Q16.92-16.73 16.18-17.47Q15.45-18.20 14.41-18.20L14.41-18.20L8.84-18.20Q7.77-18.20 7.03-17.47Q6.30-16.73 6.30-15.66L6.30-15.66L6.30-5.89Q6.30-4.86 7.03-4.12Q7.77-3.38 8.84-3.38L8.84-3.38L14.41-3.38Z" transform="translate(158.1986242822493 125.32) " fill="rgb(181, 181, 182)" stroke="rgb(181, 181, 182)" stroke-width="0.052" data-glyph-w="25.782036326035616" data-glyph-h="37.596" data-glyph-ascender="31.33" data-glyph-descender="-6.265999999999999"></path><path d="M1.28-21.56L6.33-21.56L6.33-5.89Q6.33-4.86 7.06-4.12Q7.80-3.38 8.87-3.38L8.87-3.38L14.41-3.38Q15.48-3.38 16.21-4.12Q16.95-4.86 16.95-5.89L16.95-5.89L16.95-21.56L21.99-21.56L21.99-4.92Q21.99-3.60 21.32-2.48Q20.65-1.35 19.52-0.67Q18.39 0 17.07 0L17.07 0L6.20 0Q4.86 0 3.73-0.66Q2.60-1.32 1.94-2.46Q1.28-3.60 1.28-4.92L1.28-4.92L1.28-21.56Z" transform="translate(183.98066060828492 125.32) " fill="rgb(181, 181, 182)" stroke="rgb(181, 181, 182)" stroke-width="0.052" data-glyph-w="25.813366326035613" data-glyph-h="37.596" data-glyph-ascender="31.33" data-glyph-descender="-6.265999999999999"></path><path d="M1.28-21.56L14.47-21.56Q16.51-21.56 18.23-20.55Q19.96-19.55 20.96-17.83Q21.96-16.10 21.96-14.07L21.96-14.07L21.96-7.49Q21.96-5.45 20.96-3.73Q19.96-2.01 18.23-1.00Q16.51 0 14.47 0L14.47 0L1.28 0L1.28-21.56ZM12.81-3.38Q13.91-3.38 14.87-3.93Q15.82-4.48 16.37-5.44Q16.92-6.39 16.92-7.49L16.92-7.49L16.92-14.07Q16.92-15.20 16.37-16.15Q15.82-17.11 14.87-17.65Q13.91-18.20 12.81-18.20L12.81-18.20L6.30-18.20L6.30-3.38L12.81-3.38Z" transform="translate(209.79402693432053 125.32) " fill="rgb(181, 181, 182)" stroke="rgb(181, 181, 182)" stroke-width="0.052" data-glyph-w="25.782036326035616" data-glyph-h="37.596" data-glyph-ascender="31.33" data-glyph-descender="-6.265999999999999"></path></g></svg></g>
        </g>
  </svg>