<svg xmlns="http://www.w3.org/2000/svg" xmlns:xlink="http://www.w3.org/1999/xlink" version="1.1" preserveAspectRatio="none" viewBox="156.50002148438 94.56968358872001 501 376" width="501" height="376">
    <path transform="translate(156.50002148438, 94.56968358872001)" fill="#000000" d="M217.41555529785,262.99104162094994L218.44555529784998,263.29104162094995L219.35555529784997,263.77354162094997L220.12555529784998,264.42104162094995L220.74805529785,265.23354162095L221.21555529784996,266.19104162095L221.50805529784998,267.28604162094996L221.60555529784997,268.49104162095L221.50805529784998,269.68104162094994L221.21555529784996,270.77104162095L220.74805529785,271.73854162095L220.12555529784998,272.56104162095L219.35555529784997,273.22604162095L218.44555529784998,273.72104162095L217.41555529785,274.03604162095L216.28555529784998,274.14104162095L215.14305529784997,274.03854162094996L214.11555529784997,273.73104162095L213.21305529784996,273.23604162095L212.44555529784998,272.57104162095L211.82305529784998,271.75854162095L211.35555529784997,270.80104162095L211.06055529785,269.70854162095L210.95555529784997,268.51104162095L211.06305529784998,267.30604162094994L211.36555529784997,266.21104162094997L211.83555529784996,265.25104162095L212.46555529784996,264.43104162095L213.24055529784997,263.77604162094997L214.14555529784997,263.29104162094995L215.16555529784995,262.99104162094994L216.28555529784998,262.89104162095ZM204.85452014162496,262.99104162094994L205.88452014154996,263.29104162094995L206.79452014162496,263.77354162094997L207.56452014164998,264.42104162094995L208.18702014164998,265.23354162095L208.65452014164998,266.19104162095L208.94702014164997,267.28604162094996L209.04452014164997,268.49104162095L208.94702014164997,269.68104162094994L208.65452014164998,270.77104162095L208.18702014164998,271.73854162095L207.56452014164998,272.56104162095L206.79452014162496,273.22604162095L205.88452014154996,273.72104162095L204.85452014162496,274.03604162095L203.72452014164998,274.14104162095L202.58202014157496,274.03854162094996L201.55452014154997,273.73104162095L200.65202014162497,273.23604162095L199.88452014164997,272.57104162095L199.26202014157496,271.75854162095L198.79452014154998,270.80104162095L198.499520141625,269.70854162095L198.39452014165,268.51104162095L198.502020141625,267.30604162094994L198.80452014154997,266.21104162094997L199.27452014157495,265.25104162095L199.90452014164998,264.43104162095L200.67952014159997,263.77604162094997L201.58452014165,263.29104162094995L202.60452014159998,262.99104162094994L203.72452014164998,262.89104162095ZM293.67096545415,263.0110416209499L294.57096545415,263.28104162094996L295.88096545415,264.25104162095L296.65096545414997,265.62104162095L297.02096545415,267.19104162095L297.08096545415,267.98104162095L297.10096545415,268.75104162095L289.45096545405,268.75104162095L289.52096545415,269.58104162095L289.71096545414997,270.29104162094995L290.20346545407494,271.19354162095L290.92096545404996,271.84104162094997L291.81346545409997,272.22354162094996L292.81096545405,272.35104162095L294.43096545414994,272.12104162095L296.07096545415,271.40104162094997L296.84096545405,272.70104162095L294.74096545415,273.77104162095L292.55096545414995,274.12104162095L290.55096545414995,273.76104162095L289.69596545412503,273.31354162094993L288.97096545405,272.69104162095L288.38346545405,271.89604162095L287.94096545405,270.93104162095L287.65596545405,269.78604162095L287.56096545405,268.47104162095L287.88096545415,266.32104162095L288.278465454075,265.37604162095L288.83096545405,264.56104162095L289.5359654541,263.88104162095L290.39096545405,263.36104162095L291.405965454075,263.03104162094996L292.57096545415,262.92104162094995ZM237.43569201654998,263.21104162094997L238.28069201655,263.64854162094997L239.01569201654996,264.26104162095L240.08569201654996,264.26104162095L240.08569201654996,266.03104162094996L238.16569201664998,266.03104162094996L237.67069201659996,265.36354162095L237.06569201664996,264.90104162094997L236.35319201659996,264.63104162094993L235.53569201665,264.54104162094995L234.28569201665,264.82104162095L233.26569201654996,265.61104162095L232.57569201654997,266.85104162095L232.32569201654997,268.49104162095L232.57569201654997,270.10104162095L233.26569201654996,271.32104162095L234.28569201665,272.10104162095L235.53569201665,272.37104162095L236.45319201659998,272.25354162094993L237.24569201664997,271.90104162094997L237.90069201657496,271.31104162095005L238.40569201654998,270.50104162095L239.98569201655,271.28104162094996L239.22569201654997,272.46104162094997L238.20569201664998,273.35104162095L236.95569201664998,273.92104162094995L235.51569201654996,274.12104162095L234.44819201657498,274.01604162095003L233.46569201664997,273.70104162095L232.59569201665,273.20604162095L231.84569201665,272.54104162094995L231.24069201664997,271.71854162094996L230.78569201665,270.75104162095L230.500692016575,269.67104162094995L230.40569201654998,268.49104162095L230.50569201657498,267.30854162095L230.80569201664997,266.22104162095L231.28069201662498,265.26104162095L231.90569201654998,264.44104162095L233.53569201665,263.28104162094996L234.50069201664996,262.96604162094997L235.53569201665,262.86104162095ZM302.76930529785,263.20104162095L305.25930529785,263.20104162095L305.25930529785,264.75104162095L302.74930529785,264.75104162095L302.71930529785,270.88104162095L302.85930529784997,271.89104162095L303.32930529784994,272.43104162095L304.03930529785,272.58104162095L304.79930529784997,272.50104162095L305.51930529785,272.24104162095L305.95930529784994,273.52104162095L304.91930529785,273.93104162095L303.63930529785,274.08104162095L302.42930529784996,273.91104162094996L301.55930529784996,273.34104162094997L301.02930529785,272.27104162095L300.84930529785,270.59104162094997L300.87930529785,264.75104162095L299.18930529784996,264.75104162095L299.18930529784996,263.20104162095L300.90930529785,263.20104162095L300.90930529785,260.65104162094997L302.76930529785,259.77104162095ZM251.56955920414998,272.06104162095L253.12955920414998,272.06104162095L253.12955920414998,273.82104162095L249.66955920404996,273.82104162095L249.66955920404996,272.95104162095L248.47955920404996,273.76104162095L246.93955920404997,274.06104162095L245.897059204075,273.96604162094997L244.92955920414997,273.68104162095L244.06705920409996,273.22104162094996L243.31955920414998,272.58104162095L242.71455920412495,271.77854162094997L242.25955920405,270.81104162095L241.96705920404997,269.68604162095005L241.86955920404998,268.41104162094996L241.962059204075,267.23604162095L242.23955920414997,266.17104162094995L242.68705920407498,265.23354162095L243.28955920404997,264.44104162095L244.03705920407498,263.81104162095L244.91955920414998,263.34104162094997L245.924559204075,263.04104162095L247.03955920404997,262.94104162095L248.44955920405,263.11104162095L249.66955920404996,263.70104162095L249.66955920404996,259.63104162095L248.21955920404997,259.63104162095L248.21955920404997,257.86104162095L251.56955920414998,257.86104162095ZM188.69637561034997,264.08104162095L190.17637561034996,263.25104162095L191.82637561034997,262.94104162095L192.82387561035,263.03854162094996L193.73637561034997,263.33104162095L194.55387561034996,263.80104162095L195.24637561034996,264.43104162095L195.80637561034996,265.20354162095L196.22637561034998,266.12104162095L196.56637561034998,268.31104162095L196.47137561034998,269.53854162094996L196.18637561034998,270.64104162095L195.71887561034998,271.60854162095L195.09637561034998,272.43104162095L194.34137561034998,273.08854162094997L193.45637561034997,273.58104162095L192.45387561034997,273.88104162095004L191.36637561034996,273.98104162095L189.87637561034998,273.75104162095L188.69637561034997,273.15104162094997L188.69637561034997,273.82104162095L186.78637561034998,273.82104162095L186.78637561034998,259.63104162095L185.24637561034996,259.63104162095L185.24637561034996,257.86104162095L188.69637561034997,257.86104162095ZM270.77834826664997,271.36104162095L271.19834826665,271.65104162094997L271.47834826664996,272.07104162095L271.58834826665,272.58104162095L271.47834826664996,273.10104162095L271.19834826665,273.54104162094995L270.77834826664997,273.84104162094997L270.26834826655,273.94104162095L269.74834826664994,273.84104162094997L269.31834826654995,273.54104162094995L269.02834826664997,273.10104162095L268.91834826664996,272.58104162095L269.02834826664997,272.07104162095L269.31834826654995,271.65104162094997L269.74834826664994,271.36104162095L270.26834826655,271.26104162095ZM281.94412951655,263.24104162095L283.11412951665,263.96104162094997L283.85412951654996,265.19104162095L284.11412951665,266.97104162095L284.11412951665,272.06104162095L285.59412951664996,272.06104162095L285.59412951664996,273.82104162095L280.63412951655,273.82104162095L280.63412951655,272.06104162095L282.13412951655,272.06104162095L282.13412951655,267.21104162094997L281.979129516575,266.13854162095L281.51412951665,265.36104162095L280.75412951659996,264.88104162095L279.73412951665,264.72104162095L278.38412951655,265.04104162094995L277.10412951654996,265.83104162095L277.10412951654996,272.06104162095L278.60412951654996,272.06104162095L278.60412951654996,273.82104162095L273.64412951664997,273.82104162095L273.64412951664997,272.06104162095L275.11412951665,272.06104162095L275.11412951665,264.96104162094997L273.64412951664997,264.96104162094997L273.64412951664997,263.20104162095L277.02412951655,263.20104162095L277.02412951655,264.45104162095L277.76412951665,263.88104162095L278.57412951655,263.42104162094995L279.44412951655,263.11104162095L280.40412951664996,263.00104162095ZM263.26151232905,263.24104162095L264.43151232915,263.96104162094997L265.17151232904996,265.19104162095L265.43151232915,266.97104162095L265.43151232915,272.06104162095L266.91151232914996,272.06104162095L266.91151232914996,273.82104162095L261.95151232905,273.82104162095L261.95151232905,272.06104162095L263.45151232905,272.06104162095L263.45151232905,267.21104162094997L263.296512329075,266.13854162095L262.83151232915,265.36104162095L262.07151232909996,264.88104162095L261.05151232915,264.72104162095L259.70151232905,265.04104162094995L258.42151232904996,265.83104162095L258.42151232904996,272.06104162095L259.92151232904996,272.06104162095L259.92151232904996,273.82104162095L254.96151232914997,273.82104162095L254.96151232914997,272.06104162095L256.43151232915,272.06104162095L256.43151232915,264.96104162094997L254.96151232914997,264.96104162094997L254.96151232914997,263.20104162095L258.34151232905,263.20104162095L258.34151232905,264.45104162095L259.08151232915,263.88104162095L259.89151232905,263.42104162094995L260.76151232905,263.11104162095L261.72151232914996,263.00104162095ZM227.02659045414998,272.06104162095L228.62659045414998,272.06104162095L228.62659045414998,273.82104162095L223.57659045404998,273.82104162095L223.57659045404998,272.06104162095L225.11659045404997,272.06104162095L225.11659045404997,259.63104162095L223.57659045404998,259.63104162095L223.57659045404998,257.86104162095L227.02659045414998,257.86104162095ZM215.01555529784997,264.79104162094995L213.95555529784997,265.55104162095L213.23555529784997,266.80104162095L212.97555529784998,268.51104162095L213.23555529784997,270.16104162094996L213.95555529784997,271.42104162094995L215.01555529784997,272.22104162095L216.28555529784998,272.50104162095L217.60555529784997,272.22104162095L218.66555529784998,271.43104162095L219.37555529784998,270.17104162094995L219.63555529784998,268.51104162095L219.37555529784998,266.80104162095L218.67555529784997,265.55104162095L217.61555529784997,264.79104162094995L216.28555529784998,264.53104162094996ZM202.45452014164997,264.79104162094995L201.39452014154998,265.55104162095L200.67452014164996,266.80104162095L200.41452014164997,268.51104162095L200.67452014164996,270.16104162094996L201.39452014154998,271.42104162094995L202.45452014164997,272.22104162095L203.72452014164998,272.50104162095L205.04452014164997,272.22104162095L206.10452014154998,271.43104162095L206.81452014164998,270.17104162094995L207.07452014164997,268.51104162095L206.81452014164998,266.80104162095L206.11452014164996,265.55104162095L205.05452014154997,264.79104162094995L203.72452014164998,264.53104162094996ZM245.84955920414995,264.87104162095L244.80955920415,265.61104162095L244.10955920404996,266.79104162094995L243.84955920414995,268.39104162095L244.09955920414995,270.12104162095L244.78955920404997,271.37104162095L245.83955920404998,272.14104162095L247.17955920414997,272.39104162095L248.60955920404996,272.14104162095L249.66955920404996,271.39104162095L249.66955920404996,265.44104162095L248.48955920414997,264.82104162095L247.11955920404998,264.62104162095ZM189.88637561034997,264.93104162095L188.69637561034997,265.76104162095L188.69637561034997,271.47104162095L189.65637561034998,272.07104162095L190.37637561034995,272.26604162095L191.25637561034998,272.33104162095L192.51637561034997,272.09104162094997L193.58637561035,271.34104162094997L194.32637561034997,270.11104162095L194.60637561034997,268.39104162095L194.33637561035,266.79104162094995L193.63637561034997,265.61104162095L192.59637561034998,264.87104162095L191.31637561034998,264.62104162095ZM291.27096545415,264.71104162094997L290.42096545404996,265.25104162095L289.87096545415,266.12104162095L289.55096545414995,267.27104162095L295.06096545405,267.27104162095L294.87096545415,266.17104162094995L294.41096545414996,265.30104162095L293.62096545415,264.72104162095L292.43096545414994,264.52104162095ZM119.5295,216.32355051161997L120.897,216.75105051161998L122.1445,217.42105051161997L123.227,218.29105051161997L124.112,219.34855051161998L124.787,220.58105051161996L125.2145,221.95605051161996L125.357,223.42105051161997L125.242,224.72355051161998L124.897,225.93105051161996L123.677,228.01105051161997L124.897,230.09105051161995L125.242,231.28605051161998L125.357,232.55105051161996L125.2145,234.00605051161997L124.787,235.35105051161997L124.112,236.56855051161995L123.227,237.62105051161996L122.1445,238.49105051161996L120.897,239.16105051161998L119.5295,239.58855051161996L118.067,239.73105051161997L85.717,239.73105051161997L84.71950000000001,239.54105051161997L83.887,238.97105051161998L83.31700000000001,238.13855051161997L83.12700000000001,237.14105051161997L83.12700000000001,218.78105051161998L83.31700000000001,217.78105051161998L83.887,216.94105051161998L84.71950000000001,216.37105051161996L85.717,216.18105051161996L118.067,216.18105051161996ZM167.405,216.54105051161997L169.255,217.40105051161996L170.85500000000002,218.65105051161996L172.195,220.18105051161996L173.27249999999998,221.94855051161997L174.065,223.91105051161998L174.5525,225.94855051161994L174.715,227.96105051161996L174.54500000000002,230.01855051161996L174.035,232.09105051161995L173.20749999999998,234.07605051161997L172.065,235.87105051161996L170.6325,237.41605051161997L168.935,238.65105051161996L166.975,239.46105051161996L164.775,239.73105051161997L140.155,239.73105051161997L138.0575,239.37105051161996L136.20499999999998,238.51105051161997L134.61,237.26605051161997L133.265,235.73105051161997L132.195,233.96605051161995L131.405,232.01105051161997L130.91750000000002,229.96855051161998L130.755,227.96105051161996L130.925,225.89855051161996L131.435,223.83105051161996L132.26250000000002,221.84355051161998L133.405,220.04105051161997L134.8325,218.49605051161996L136.535,217.26105051161997L138.49,216.45105051161997L140.695,216.18105051161996L165.315,216.18105051161996ZM216.761,216.54105051161997L218.611,217.40105051161996L220.211,218.65105051161996L221.551,220.18105051161996L222.62849999999997,221.94855051161997L223.421,223.91105051161998L223.9085,225.94855051161994L224.071,227.96105051161996L223.901,230.01855051161996L223.391,232.09105051161995L222.56349999999998,234.07605051161997L221.421,235.87105051161996L219.9885,237.41605051161997L218.291,238.65105051161996L216.331,239.46105051161996L214.131,239.73105051161997L189.511,239.73105051161997L187.41350000000003,239.37105051161996L185.561,238.51105051161997L183.966,237.26605051161997L182.621,235.73105051161997L181.551,233.96605051161995L180.761,232.01105051161997L180.2735,229.96855051161998L180.111,227.96105051161996L180.281,225.89855051161996L180.791,223.83105051161996L181.61850000000004,221.84355051161998L182.761,220.04105051161997L184.1885,218.49605051161996L185.891,217.26105051161997L187.846,216.45105051161997L190.051,216.18105051161996L214.671,216.18105051161996ZM233.0245,216.37105051161996L233.867,216.94105051161998L234.452,217.78105051161998L234.647,218.78105051161998L234.647,232.55105051161996L234.80450000000002,233.30605051161996L235.277,233.95105051161997L235.9445,234.39355051161996L236.707,234.54105051161997L269.10699999999997,234.54105051161997L270.1045,234.73105051161997L270.937,235.30105051161996L271.507,236.14105051161997L271.697,237.14105051161997L271.507,238.13855051161997L270.937,238.97105051161998L270.1045,239.54105051161997L269.10699999999997,239.73105051161997L236.867,239.73105051161997L235.397,239.58855051161996L234.007,239.16105051161998L232.74450000000002,238.49105051161996L231.657,237.62105051161996L230.757,236.56855051161995L230.057,235.35105051161997L229.6145,234.00605051161997L229.467,232.55105051161996L229.467,218.78105051161998L229.657,217.78105051161998L230.227,216.94105051161998L231.0595,216.37105051161996L232.057,216.18105051161996ZM319.5125,216.37105051161996L320.345,216.94105051161998L320.915,217.78105051161998L321.105,218.78105051161998L320.915,219.77855051161998L320.345,220.61105051161996L319.5125,221.18105051161996L318.515,221.37105051161996L288.165,221.37105051161996L286.4575,221.53855051161997L285.115,222.04105051161997L284.075,222.79355051161997L283.275,223.69105051161998L282.71000000000004,224.70855051161996L282.355,225.82105051161997L282.115,227.96105051161996L282.355,230.09105051161995L282.71000000000004,231.20355051162L283.275,232.22105051161998L284.075,233.11855051162L285.115,233.87105051161996L286.4575,234.37355051161995L288.165,234.54105051161997L318.515,234.54105051161997L319.5125,234.73105051161997L320.345,235.30105051161996L320.915,236.14105051161997L321.105,237.14105051161997L320.915,238.13855051161997L320.345,238.97105051161998L319.5125,239.54105051161997L318.515,239.73105051161997L286.495,239.73105051161997L284.39750000000004,239.46105051161996L282.545,238.65105051161996L280.95,237.41605051161997L279.605,235.87105051161996L278.535,234.06855051161995L277.745,232.06105051161995L277.25750000000005,229.98105051161997L277.095,227.96105051161996L277.265,225.89855051161996L277.775,223.83105051161996L278.6025,221.84355051161998L279.745,220.04105051161997L281.1725,218.49605051161996L282.875,217.26105051161997L284.83,216.45105051161997L287.035,216.18105051161996L318.515,216.18105051161996ZM362.78000000000003,216.45105051161997L364.735,217.26105051161997L366.4375,218.49605051161996L367.865,220.04105051161997L369.0075,221.84355051161998L369.835,223.83105051161996L370.34499999999997,225.89855051161996L370.515,227.96105051161996L370.35249999999996,229.96855051161998L369.865,232.01105051161997L369.075,233.96605051161995L368.005,235.73105051161997L366.66,237.26605051161997L365.065,238.51105051161997L363.2125,239.37105051161996L361.115,239.73105051161997L329.095,239.73105051161997L328.0975,239.54105051161997L327.265,238.97105051161998L326.695,238.13855051161997L326.505,237.14105051161997L326.505,218.78105051161998L326.695,217.78105051161998L327.265,216.94105051161998L328.0975,216.37105051161996L329.095,216.18105051161996L360.575,216.18105051161996ZM410.57000000000005,216.54105051161997L412.415,217.40105051161996L414.01750000000004,218.65105051161996L415.365,220.18105051161996L416.435,221.94855051161997L417.225,223.91105051161998L417.7125,225.94855051161994L417.875,227.96105051161996L417.875,237.14105051161997L417.685,238.13855051161997L417.115,238.97105051161998L416.28249999999997,239.54105051161997L415.285,239.73105051161997L414.285,239.54105051161997L413.445,238.97105051161998L412.875,238.13855051161997L412.685,237.14105051161997L412.685,227.96105051161996L412.445,225.82105051161997L412.095,224.70855051161996L411.525,223.69105051161998L410.725,222.79355051161997L409.665,222.04105051161997L408.315,221.53855051161997L406.645,221.37105051161996L387.145,221.37105051161996L385.4375,221.53855051161997L384.095,222.04105051161997L383.055,222.79355051161997L382.255,223.69105051161998L381.6925,224.70855051161996L381.345,225.82105051161997L381.095,227.96105051161996L381.095,237.14105051161997L380.9075,238.13855051161997L380.345,238.97105051161998L379.505,239.54105051161997L378.505,239.73105051161997L377.5075,239.54105051161997L376.675,238.97105051161998L376.105,238.13855051161997L375.915,237.14105051161997L375.915,227.96105051161996L376.08500000000004,225.89855051161996L376.595,223.83105051161996L377.4225,221.84355051161998L378.565,220.04105051161997L379.99250000000006,218.49605051161996L381.695,217.26105051161997L383.65,216.45105051161997L385.855,216.18105051161996L408.475,216.18105051161996ZM88.307,230.55105051161996L88.307,234.54105051161997L118.277,234.54105051161997L119.0395,234.39355051161996L119.707,233.95105051161997L120.1795,233.30605051161996L120.337,232.55105051161996L120.1795,231.75855051161994L119.707,231.12105051161996L119.0395,230.69355051161997L118.277,230.55105051161996ZM141.825,221.37105051161996L140.1175,221.53855051161997L138.775,222.04105051161997L137.735,222.79355051161997L136.935,223.69105051161998L136.37,224.70855051161996L136.015,225.82105051161997L135.775,227.96105051161996L136.015,230.09105051161995L136.37,231.20355051162L136.935,232.22105051161998L137.735,233.11855051162L138.775,233.87105051161996L140.1175,234.37355051161995L141.825,234.54105051161997L163.645,234.54105051161997L165.315,234.37355051161995L166.665,233.87105051161996L167.725,233.11855051162L168.525,232.22105051161998L169.095,231.20355051162L169.445,230.09105051161995L169.685,227.96105051161996L169.445,225.82105051161997L169.095,224.70855051161996L168.525,223.69105051161998L167.725,222.79355051161997L166.665,222.04105051161997L165.315,221.53855051161997L163.645,221.37105051161996ZM191.181,221.37105051161996L189.4735,221.53855051161997L188.131,222.04105051161997L187.091,222.79355051161997L186.291,223.69105051161998L185.726,224.70855051161996L185.371,225.82105051161997L185.131,227.96105051161996L185.371,230.09105051161995L185.726,231.20355051162L186.291,232.22105051161998L187.091,233.11855051162L188.131,233.87105051161996L189.4735,234.37355051161995L191.181,234.54105051161997L213.001,234.54105051161997L214.671,234.37355051161995L216.021,233.87105051161996L217.08100000000002,233.11855051162L217.881,232.22105051161998L218.451,231.20355051162L218.801,230.09105051161995L219.041,227.96105051161996L218.801,225.82105051161997L218.451,224.70855051161996L217.881,223.69105051161998L217.08100000000002,222.79355051161997L216.021,222.04105051161997L214.671,221.53855051161997L213.001,221.37105051161996ZM331.685,221.37105051161996L331.685,234.54105051161997L359.445,234.54105051161997L361.12,234.37355051161995L362.465,233.87105051161996L363.5275,233.11855051162L364.335,232.22105051161998L364.9,231.20355051162L365.255,230.09105051161995L365.495,227.96105051161996L365.255,225.82105051161997L364.9,224.70855051161996L364.335,223.69105051161998L363.5275,222.79355051161997L362.465,222.04105051161997L361.12,221.53855051161997L359.445,221.37105051161996ZM88.307,221.37105051161996L88.307,225.36105051161996L118.337,225.36105051161996L119.092,225.22605051161995L119.737,224.82105051161997L120.187,224.20105051162L120.337,223.42105051161997L120.1795,222.65855051161998L119.707,221.99105051161996L119.0395,221.52605051161999L118.277,221.37105051161996ZM272.03584679134406,98.5572965699805L275.9962769305247,99.64884321098127L279.64975659752486,101.38839640436643L282.9310838946575,103.71075425245002L285.77505692423546,106.55071485754613L288.1164737885716,109.84307632196878L289.89013258997886,113.52263674803207L291.03083143077004,117.52419423805003L237.87423201277002,117.52419423805003L236.4912830444419,115.70924090147503L234.70709162882002,114.30355486112502L232.60190625534815,113.39540945541253L230.25597541347003,113.07307802275002L228.50455213101066,113.2516309117969L226.86948915827003,113.76321503210002L225.3868983155044,114.57171856340315L224.09289142297004,115.64102968545004L223.0235803009232,116.93503657798442L222.21507676962005,118.41762742075004L221.7034926493169,120.05269039349065L221.52493976027003,121.80411367595002L221.7034926493169,123.5555369584094L222.21507676962005,125.19059993115003L223.0235803009232,126.67319077391565L224.09289142297004,127.96719766645L225.3868983155044,129.03650878849686L226.86948915827003,129.8450123198L228.50455213101066,130.35659644010315L230.25597541347003,130.53514932915002L232.6139435287169,130.21281789648594L234.73919102454502,129.30467249076253L236.52739486466066,127.89898645038284L237.87423201277002,126.08403311375002L291.20202820827,126.08403311375002L290.4498658039421,129.49258770354533L289.24530254028406,132.69650864521878L287.6254533436721,135.65968411851412L285.6274331404825,138.34600230317503L283.2883568570913,140.7193513789453L280.6453394198747,142.74361952556876L277.7354957552089,144.38269492278909L274.59594078947003,145.60046575035003L276.71807447674536,145.89583870607032L278.7773886433663,146.39057900279357L280.76523149906296,147.0754079089259L282.6729512535653,147.94104669287344L286.21341429790726,150.1776389678385L289.32956345423247,153.02612597493754L291.9521844003811,156.4122778614194L294.0120628141934,160.26186477453285L295.4399843735097,164.5006568615268L295.8953318570568,166.74280801624423L296.16673475617,169.05442426965004L237.87423201277002,169.05442426965004L236.4912830444419,167.23947093307504L234.70709162882002,165.83378489272502L232.60190625534815,164.92563948701252L230.25597541347003,164.60330805435L228.50455213101063,164.7818609433969L226.86948915827003,165.2934450637L225.3868983155044,166.10194859500314L224.09289142297004,167.17125971705002L223.0235803009232,168.4652666095844L222.21507676962005,169.94785745235004L221.7034926493169,171.58292042509063L221.52493976027003,173.33434370755003L221.7034926493169,175.0857669899764L222.21507676962005,176.72082996269222L223.0235803009232,178.20342080544003L224.09289142297004,179.4974276979625L225.3868983155044,180.56673882000217L226.86948915827003,181.37524235130158L228.50455213101063,181.88682647160334L230.25597541347003,182.06537936065L232.61394352873097,181.75642267623596L234.7391910245825,180.8777017166625L236.52739486470284,179.50144012243283L237.87423201277002,177.69986153405003L295.56754603487,177.69986153405003L294.2974465048214,181.75424927962678L292.45256716901844,185.46657783888907L290.09209128843816,188.77565773862247L287.2752021240575,191.62029950561254L284.0610829368534,193.93931366664475L280.5089169878028,195.67151074850472L276.6778875378827,196.75570127797795L272.62717784807,197.13069578185002L204.83325395267002,197.13069578185002L204.83325395267002,150.99316424195L237.36064168027002,150.99316424195L238.65397983536224,153.17191073077814L240.51708226563255,154.87719113180003L242.8135265389966,155.9886327108219L244.0816198568124,156.28404746264727L245.40689022337003,156.38586273365001L247.15831350582943,156.20730984460312L248.79337647857005,155.69572572430002L250.27596732133568,154.8872221929969L251.56997421387004,153.81791107095003L252.6392853359169,152.52390417841568L253.44778886722003,151.04131333565005L253.95937298752312,149.40625036290942L254.13792587657002,147.65482708045002L254.05232748777001,146.71324480415L253.88113071027,145.60046575035003L253.4151879183528,144.20765290515294L252.73758973548252,142.9322034757922L251.86940139014348,141.795182690751L250.83168811082,140.81765577851252L249.64551512599655,140.02068796755998L248.3319476641575,139.4253444863766L246.91205095378723,139.05269056344554L245.40689022337003,138.92379142725002L243.36055374214502,139.17122426980626L241.49076393774502,139.87607350225L239.84566990383252,140.98216518196875L238.47342073407003,142.43332536635L204.83325395267002,142.43332536635L204.83325395267002,98.17895837905002L267.83366807767004,98.17895837905002Z"/></svg>