<?xml version="1.0" standalone="no"?><svg data-noselect="" 
  viewBox="156.50002148438 94.56968358872001 501 376" 
  width="501" 
  height="376" 
  ref="svg_canvas" 
  preserveAspectRatio="none" 
  version="1.1" xmlns="http://www.w3.org/2000/svg" 
  style="background: #ffffff;">
    <defs></defs>
    <g id="shape_BwJcYnEnBE" class="icon"  ref="shape_BwJcYnEnBE" key="shape_BwJcYnEnBE" transform="translate(361.33327543705,192.74864196777003) rotate(0,49.475871313675,49.475871313675) scale(1,1)" style="cursor:move;display:inline;opacity:1;" filter="">
            <g style="display:inline"><rect fill="rgba(0,0,0,0)" width="111.33347819122993" height="118.95174262735" x="-10" y="-10"></rect><svg version="1.1" id="图层_1" xmlns="http://www.w3.org/2000/svg" xmlns:xlink="http://www.w3.org/1999/xlink" x="0px" y="0px" viewBox="0 0 106.69999694824219 115.60000610351562" enable-background="new 0 0 106.8 115.5" xml:space="preserve" width="91.33347819122993" height="98.95174262735" class="style-removed" preserveAspectRatio="none" data-parent="shape_BwJcYnEnBE">
<path fill="#5A57E2" d="M29.7,98c-5.6,0-10.2-4.6-10.2-10.2c0-5.6,4.6-10.2,10.2-10.2c3.8,0,7.1,2.1,8.9,5.2h68.1
	c-1.1-14.6-11.8-26.2-25.2-27.4c10.1-3.1,17.8-11.9,19.4-22.8H38.6c-1.7,3.1-5.1,5.2-8.9,5.2c-5.6,0-10.2-4.6-10.2-10.2
	s4.6-10.2,10.2-10.2c3.8,0,7.1,2.1,8.9,5.2h62.1C98.2,9.7,87,0,73.6,0H0v51.7h39.3c1.9-2.5,4.8-4.1,8.1-4.1c4.8,0,8.8,3.3,9.9,7.8
	c0.1,0.4,0.2,0.9,0.2,1.3c0,0.4,0.1,0.7,0.1,1.1c0,5.6-4.6,10.2-10.2,10.2c-4.2,0-7.9-2.6-9.4-6.3H0v53.9h79.2
	c12.9,0,23.8-9.6,26.8-22.7H38.6C36.9,96,33.5,98,29.7,98z"></path>
</svg></g>
        </g><g id="shape_9E1o3FQheA" class="brand_name"  ref="shape_9E1o3FQheA" key="shape_9E1o3FQheA" transform="translate(182.50002148438,132.24073410033998) rotate(0,343.178,189) scale(1,1)" style="cursor:move;display:inline;opacity:1;" filter="">
            <g style="display:inline"><svg xmlns="http://www.w3.org/2000/svg" version="1.1" xmlns:xlink="http://www.w3.org/1999/xlink" width="557" height="378" viewBox="0 0 557 378" preserveAspectRatio="none" data-parent="shape_9E1o3FQheA"><rect fill="rgba(0,0,0,0)" width="341" height="54" x="54" y="162"></rect><g data-width="340.146" transform="translate(54.42699999999999, 0)"><path d="M7.88-13.12L7.88-9.13L37.85-9.13Q38.66-9.13 39.28-9.72Q39.91-10.31 39.91-11.12L39.91-11.12Q39.91-11.99 39.28-12.55Q38.66-13.12 37.85-13.12L37.85-13.12L7.88-13.12ZM37.85-22.30L7.88-22.30L7.88-18.31L37.91-18.31Q38.72-18.31 39.31-18.85Q39.91-19.39 39.91-20.25L39.91-20.25Q39.91-21.06 39.28-21.68Q38.66-22.30 37.85-22.30L37.85-22.30ZM37.64-3.94L5.29-3.94Q4.21-3.94 3.46-4.70Q2.70-5.45 2.70-6.53L2.70-6.53L2.70-24.89Q2.70-25.97 3.46-26.73Q4.21-27.49 5.29-27.49L5.29-27.49L37.64-27.49Q39.15-27.49 40.47-26.92Q41.80-26.35 42.80-25.38Q43.79-24.41 44.36-23.09Q44.93-21.76 44.93-20.25L44.93-20.25Q44.93-18.90 44.47-17.74Q44.01-16.58 43.25-15.66L43.25-15.66Q44.01-14.74 44.47-13.58Q44.93-12.42 44.93-11.12L44.93-11.12Q44.93-9.61 44.36-8.32Q43.79-7.02 42.80-6.05Q41.80-5.08 40.47-4.51Q39.15-3.94 37.64-3.94L37.64-3.94Z" transform="translate(0 206) " fill="rgb(25, 25, 25)" stroke="rgb(25, 25, 25)" stroke-width="0.09" data-glyph-w="47.628" data-glyph-h="51.3" data-glyph-ascender="43.2" data-glyph-descender="-8.1"></path><path d="M13.77-9.13L35.59-9.13Q37.42-9.13 38.61-9.80Q39.80-10.48 40.47-11.45Q41.15-12.42 41.39-13.58Q41.63-14.74 41.63-15.71L41.63-15.71Q41.63-16.69 41.39-17.85Q41.15-19.01 40.47-19.98Q39.80-20.95 38.61-21.63Q37.42-22.30 35.59-22.30L35.59-22.30L13.77-22.30Q11.88-22.30 10.72-21.63Q9.56-20.95 8.88-19.98Q8.21-19.01 7.96-17.85Q7.72-16.69 7.72-15.71L7.72-15.71Q7.72-14.74 7.96-13.58Q8.21-12.42 8.88-11.45Q9.56-10.48 10.72-9.80Q11.88-9.13 13.77-9.13L13.77-9.13ZM46.66-15.71L46.66-15.71Q46.66-13.66 45.98-11.58Q45.31-9.50 44.01-7.80Q42.71-6.10 40.88-5.02Q39.04-3.94 36.72-3.94L36.72-3.94L12.10-3.94Q9.88-4.05 8.15-5.16Q6.43-6.26 5.21-7.94Q4.00-9.61 3.35-11.66Q2.70-13.72 2.70-15.71L2.70-15.71Q2.70-17.77 3.38-19.84Q4.05-21.92 5.35-23.63Q6.64-25.33 8.48-26.41Q10.31-27.49 12.64-27.49L12.64-27.49L37.26-27.49Q39.47-27.38 41.20-26.27Q42.93-25.16 44.14-23.49Q45.36-21.82 46.01-19.76Q46.66-17.71 46.66-15.71Z" transform="translate(47.628 206) " fill="rgb(25, 25, 25)" stroke="rgb(25, 25, 25)" stroke-width="0.09" data-glyph-w="49.356" data-glyph-h="51.3" data-glyph-ascender="43.2" data-glyph-descender="-8.1"></path><path d="M13.77-9.13L35.59-9.13Q37.42-9.13 38.61-9.80Q39.80-10.48 40.47-11.45Q41.15-12.42 41.39-13.58Q41.63-14.74 41.63-15.71L41.63-15.71Q41.63-16.69 41.39-17.85Q41.15-19.01 40.47-19.98Q39.80-20.95 38.61-21.63Q37.42-22.30 35.59-22.30L35.59-22.30L13.77-22.30Q11.88-22.30 10.72-21.63Q9.56-20.95 8.88-19.98Q8.21-19.01 7.96-17.85Q7.72-16.69 7.72-15.71L7.72-15.71Q7.72-14.74 7.96-13.58Q8.21-12.42 8.88-11.45Q9.56-10.48 10.72-9.80Q11.88-9.13 13.77-9.13L13.77-9.13ZM46.66-15.71L46.66-15.71Q46.66-13.66 45.98-11.58Q45.31-9.50 44.01-7.80Q42.71-6.10 40.88-5.02Q39.04-3.94 36.72-3.94L36.72-3.94L12.10-3.94Q9.88-4.05 8.15-5.16Q6.43-6.26 5.21-7.94Q4.00-9.61 3.35-11.66Q2.70-13.72 2.70-15.71L2.70-15.71Q2.70-17.77 3.38-19.84Q4.05-21.92 5.35-23.63Q6.64-25.33 8.48-26.41Q10.31-27.49 12.64-27.49L12.64-27.49L37.26-27.49Q39.47-27.38 41.20-26.27Q42.93-25.16 44.14-23.49Q45.36-21.82 46.01-19.76Q46.66-17.71 46.66-15.71Z" transform="translate(96.98400000000001 206) " fill="rgb(25, 25, 25)" stroke="rgb(25, 25, 25)" stroke-width="0.09" data-glyph-w="49.356" data-glyph-h="51.3" data-glyph-ascender="43.2" data-glyph-descender="-8.1"></path><path d="M42.34-3.94L10.10-3.94Q8.59-3.94 7.24-4.51Q5.89-5.08 4.89-6.05Q3.89-7.02 3.29-8.32Q2.70-9.61 2.70-11.12L2.70-11.12L2.70-24.89Q2.70-25.97 3.46-26.73Q4.21-27.49 5.29-27.49L5.29-27.49Q6.32-27.49 7.10-26.73Q7.88-25.97 7.88-24.89L7.88-24.89L7.88-11.12Q7.88-10.31 8.51-9.72Q9.13-9.13 9.94-9.13L9.94-9.13L42.34-9.13Q43.42-9.13 44.17-8.37Q44.93-7.61 44.93-6.53L44.93-6.53Q44.93-5.45 44.17-4.70Q43.42-3.94 42.34-3.94L42.34-3.94Z" transform="translate(146.34 206) " fill="rgb(25, 25, 25)" stroke="rgb(25, 25, 25)" stroke-width="0.09" data-glyph-w="47.628" data-glyph-h="51.3" data-glyph-ascender="43.2" data-glyph-descender="-8.1"></path><path d="M2.70-15.71L2.70-15.71Q2.70-17.77 3.38-19.84Q4.05-21.92 5.35-23.63Q6.64-25.33 8.48-26.41Q10.31-27.49 12.64-27.49L12.64-27.49L44.12-27.49Q45.20-27.49 45.95-26.73Q46.71-25.97 46.71-24.89L46.71-24.89Q46.71-23.81 45.95-23.06Q45.20-22.30 44.12-22.30L44.12-22.30L13.77-22.30Q11.88-22.30 10.72-21.63Q9.56-20.95 8.88-19.98Q8.21-19.01 7.96-17.85Q7.72-16.69 7.72-15.71L7.72-15.71Q7.72-14.74 7.96-13.58Q8.21-12.42 8.88-11.45Q9.56-10.48 10.72-9.80Q11.88-9.13 13.77-9.13L13.77-9.13L44.12-9.13Q45.20-9.13 45.95-8.37Q46.71-7.61 46.71-6.53L46.71-6.53Q46.71-5.45 45.95-4.70Q45.20-3.94 44.12-3.94L44.12-3.94L12.10-3.94Q9.88-3.94 8.15-5.02Q6.43-6.10 5.21-7.80Q4.00-9.50 3.35-11.61Q2.70-13.72 2.70-15.71Z" transform="translate(193.96800000000002 206) " fill="rgb(25, 25, 25)" stroke="rgb(25, 25, 25)" stroke-width="0.09" data-glyph-w="49.41" data-glyph-h="51.3" data-glyph-ascender="43.2" data-glyph-descender="-8.1"></path><path d="M35.64-22.30L7.88-22.30L7.88-9.13L35.64-9.13Q37.48-9.13 38.66-9.80Q39.85-10.48 40.53-11.45Q41.20-12.42 41.45-13.58Q41.69-14.74 41.69-15.71L41.69-15.71Q41.69-16.69 41.45-17.85Q41.20-19.01 40.53-19.98Q39.85-20.95 38.66-21.63Q37.48-22.30 35.64-22.30L35.64-22.30ZM46.71-15.71L46.71-15.71Q46.71-13.72 46.06-11.66Q45.41-9.61 44.20-7.94Q42.98-6.26 41.26-5.16Q39.53-4.05 37.31-3.94L37.31-3.94L5.29-3.94Q4.21-3.94 3.46-4.70Q2.70-5.45 2.70-6.53L2.70-6.53L2.70-24.89Q2.70-25.97 3.46-26.73Q4.21-27.49 5.29-27.49L5.29-27.49L36.77-27.49Q39.10-27.49 40.93-26.41Q42.77-25.33 44.06-23.63Q45.36-21.92 46.03-19.84Q46.71-17.77 46.71-15.71Z" transform="translate(243.37800000000001 206) " fill="rgb(25, 25, 25)" stroke="rgb(25, 25, 25)" stroke-width="0.09" data-glyph-w="49.41" data-glyph-h="51.3" data-glyph-ascender="43.2" data-glyph-descender="-8.1"></path><path d="M39.47-6.53L39.47-15.71Q39.47-16.69 39.23-17.85Q38.99-19.01 38.31-19.98Q37.64-20.95 36.45-21.63Q35.26-22.30 33.43-22.30L33.43-22.30L13.93-22.30Q12.04-22.30 10.88-21.63Q9.72-20.95 9.04-19.98Q8.37-19.01 8.13-17.85Q7.88-16.69 7.88-15.71L7.88-15.71L7.88-6.53Q7.88-5.45 7.13-4.70Q6.37-3.94 5.29-3.94L5.29-3.94Q4.21-3.94 3.46-4.70Q2.70-5.45 2.70-6.53L2.70-6.53L2.70-15.71Q2.70-17.77 3.38-19.84Q4.05-21.92 5.35-23.63Q6.64-25.33 8.48-26.41Q10.31-27.49 12.64-27.49L12.64-27.49L35.26-27.49Q37.48-27.38 39.20-26.27Q40.93-25.16 42.15-23.49Q43.36-21.82 44.01-19.76Q44.66-17.71 44.66-15.71L44.66-15.71L44.66-6.53Q44.66-5.45 43.90-4.70Q43.15-3.94 42.07-3.94L42.07-3.94Q40.99-3.94 40.23-4.70Q39.47-5.45 39.47-6.53L39.47-6.53Z" transform="translate(292.788 206) " fill="rgb(25, 25, 25)" stroke="rgb(25, 25, 25)" stroke-width="0.09" data-glyph-w="47.358" data-glyph-h="51.3" data-glyph-ascender="43.2" data-glyph-descender="-8.1"></path></g></svg></g>
        </g><g id="shape_fN7NqpvJU2" class="brand_slogan"  ref="shape_fN7NqpvJU2" key="shape_fN7NqpvJU2" transform="translate(320.07460021973,285.21103770967) rotate(0,128.80859375,76.6796875) scale(1,1)" style="cursor:move;display:inline;opacity:1;" filter="">
            <g style="display:inline"><svg xmlns="http://www.w3.org/2000/svg" version="1.1" xmlns:xlink="http://www.w3.org/1999/xlink" width="206" height="153.359375" viewBox="0 0 206 153.359375" preserveAspectRatio="none" data-parent="shape_fN7NqpvJU2"><rect fill="rgba(0,0,0,0)" width="122" height="21" x="21" y="66.1796875"></rect><g data-width="121.81640625" transform="translate(21.091796875, 0)"><path d="M0.58-14.19L0.58-15.96L4.03-15.96L4.03-9.74Q4.71-10.26 5.51-10.57Q6.31-10.88 7.16-10.88L7.16-10.88Q8.20-10.88 9.07-10.49Q9.95-10.10 10.58-9.39Q11.21-8.69 11.56-7.70Q11.90-6.71 11.90-5.51L11.90-5.51Q11.90-4.22 11.52-3.18Q11.13-2.14 10.43-1.39Q9.74-0.65 8.79-0.24Q7.83 0.16 6.70 0.16L6.70 0.16Q5.91 0.16 5.21-0.07Q4.52-0.30 4.03-0.67L4.03-0.67L4.03 0L2.12 0L2.12-14.19L0.58-14.19ZM6.65-9.20L6.65-9.20Q5.91-9.20 5.22-8.89Q4.53-8.58 4.03-8.06L4.03-8.06L4.03-2.35Q4.36-2.01 4.99-1.75Q5.63-1.49 6.59-1.49L6.59-1.49Q7.25-1.49 7.85-1.73Q8.46-1.98 8.92-2.48Q9.38-2.97 9.66-3.71Q9.94-4.45 9.94-5.43L9.94-5.43Q9.94-6.34 9.67-7.03Q9.41-7.73 8.97-8.21Q8.52-8.70 7.93-8.95Q7.33-9.20 6.65-9.20Z" transform="translate(0 83.1796875) " fill="rgb(0, 0, 0)" stroke="rgb(0, 0, 0)" stroke-width="0.035" data-glyph-w="12.84814453125" data-glyph-h="25.3681640625" data-glyph-ascender="20.1796875" data-glyph-descender="-5.1884765625"></path><path d="M0.88-5.31L0.88-5.31Q0.89-6.57 1.29-7.61Q1.68-8.64 2.39-9.39Q3.10-10.13 4.07-10.53Q5.04-10.93 6.21-10.93L6.21-10.93Q7.39-10.93 8.37-10.53Q9.35-10.13 10.05-9.40Q10.75-8.66 11.14-7.63Q11.53-6.59 11.53-5.33L11.53-5.33Q11.53-4.09 11.14-3.05Q10.75-2.01 10.05-1.26Q9.35-0.51 8.37-0.10Q7.39 0.32 6.21 0.32L6.21 0.32Q5.01 0.32 4.04-0.09Q3.07-0.50 2.37-1.25Q1.67-1.99 1.28-3.02Q0.89-4.06 0.88-5.31ZM2.90-5.31L2.90-5.31Q2.90-4.40 3.16-3.66Q3.42-2.92 3.88-2.40Q4.34-1.89 4.94-1.60Q5.54-1.32 6.21-1.32L6.21-1.32Q6.92-1.32 7.53-1.60Q8.14-1.88 8.59-2.39Q9.04-2.91 9.30-3.65Q9.56-4.39 9.56-5.31L9.56-5.31Q9.56-6.28 9.30-7.02Q9.04-7.77 8.60-8.27Q8.15-8.78 7.54-9.03Q6.92-9.29 6.21-9.29L6.21-9.29Q5.54-9.29 4.94-9.03Q4.34-8.78 3.88-8.27Q3.42-7.77 3.16-7.02Q2.90-6.28 2.90-5.31Z" transform="translate(12.84814453125 83.1796875) " fill="rgb(0, 0, 0)" stroke="rgb(0, 0, 0)" stroke-width="0.035" data-glyph-w="12.56103515625" data-glyph-h="25.3681640625" data-glyph-ascender="20.1796875" data-glyph-descender="-5.1884765625"></path><path d="M0.88-5.31L0.88-5.31Q0.89-6.57 1.29-7.61Q1.68-8.64 2.39-9.39Q3.10-10.13 4.07-10.53Q5.04-10.93 6.21-10.93L6.21-10.93Q7.39-10.93 8.37-10.53Q9.35-10.13 10.05-9.40Q10.75-8.66 11.14-7.63Q11.53-6.59 11.53-5.33L11.53-5.33Q11.53-4.09 11.14-3.05Q10.75-2.01 10.05-1.26Q9.35-0.51 8.37-0.10Q7.39 0.32 6.21 0.32L6.21 0.32Q5.01 0.32 4.04-0.09Q3.07-0.50 2.37-1.25Q1.67-1.99 1.28-3.02Q0.89-4.06 0.88-5.31ZM2.90-5.31L2.90-5.31Q2.90-4.40 3.16-3.66Q3.42-2.92 3.88-2.40Q4.34-1.89 4.94-1.60Q5.54-1.32 6.21-1.32L6.21-1.32Q6.92-1.32 7.53-1.60Q8.14-1.88 8.59-2.39Q9.04-2.91 9.30-3.65Q9.56-4.39 9.56-5.31L9.56-5.31Q9.56-6.28 9.30-7.02Q9.04-7.77 8.60-8.27Q8.15-8.78 7.54-9.03Q6.92-9.29 6.21-9.29L6.21-9.29Q5.54-9.29 4.94-9.03Q4.34-8.78 3.88-8.27Q3.42-7.77 3.16-7.02Q2.90-6.28 2.90-5.31Z" transform="translate(25.4091796875 83.1796875) " fill="rgb(0, 0, 0)" stroke="rgb(0, 0, 0)" stroke-width="0.035" data-glyph-w="12.56103515625" data-glyph-h="25.3681640625" data-glyph-ascender="20.1796875" data-glyph-descender="-5.1884765625"></path><path d="M0.94-14.19L0.94-15.96L4.39-15.96L4.39-1.76L5.99-1.76L5.99 0L0.94 0L0.94-1.76L2.48-1.76L2.48-14.19L0.94-14.19Z" transform="translate(37.97021484375 83.1796875) " fill="rgb(0, 0, 0)" stroke="rgb(0, 0, 0)" stroke-width="0.035" data-glyph-w="6.8291015625" data-glyph-h="25.3681640625" data-glyph-ascender="20.1796875" data-glyph-descender="-5.1884765625"></path><path d="M10.62-7.79L8.70-7.79Q8.26-8.56 7.60-8.92Q6.94-9.28 6.07-9.28L6.07-9.28Q5.40-9.28 4.82-9.00Q4.23-8.73 3.80-8.21Q3.36-7.70 3.11-6.97Q2.86-6.23 2.86-5.33L2.86-5.33Q2.86-4.44 3.11-3.72Q3.36-3.00 3.80-2.50Q4.25-1.99 4.82-1.72Q5.40-1.45 6.07-1.45L6.07-1.45Q7.05-1.45 7.78-1.92Q8.51-2.40 8.94-3.32L8.94-3.32L10.52-2.54Q10.21-1.89 9.76-1.36Q9.31-0.84 8.74-0.47Q8.17-0.10 7.49 0.10Q6.81 0.30 6.05 0.30L6.05 0.30Q4.94 0.30 4.00-0.12Q3.07-0.53 2.38-1.28Q1.70-2.03 1.32-3.07Q0.94-4.10 0.94-5.33L0.94-5.33Q0.94-6.56 1.34-7.60Q1.74-8.63 2.44-9.38Q3.14-10.12 4.07-10.54Q5.00-10.96 6.07-10.96L6.07-10.96Q7.08-10.96 7.97-10.61Q8.87-10.26 9.55-9.56L9.55-9.56L10.62-9.56L10.62-7.79Z" transform="translate(44.79931640625 83.1796875) " fill="rgb(0, 0, 0)" stroke="rgb(0, 0, 0)" stroke-width="0.035" data-glyph-w="11.4638671875" data-glyph-h="25.3681640625" data-glyph-ascender="20.1796875" data-glyph-descender="-5.1884765625"></path><path d="M7.29-14.19L7.29-15.96L10.64-15.96L10.64-1.76L12.20-1.76L12.20 0L8.74 0L8.74-0.87Q8.22-0.35 7.55-0.06Q6.87 0.24 6.01 0.24L6.01 0.24Q4.93 0.24 4.00-0.14Q3.08-0.51 2.39-1.24Q1.71-1.96 1.33-3.01Q0.94-4.06 0.94-5.41L0.94-5.41Q0.94-6.64 1.31-7.65Q1.68-8.66 2.36-9.38Q3.04-10.09 3.99-10.48Q4.94-10.88 6.11-10.88L6.11-10.88Q6.88-10.88 7.52-10.71Q8.15-10.54 8.74-10.12L8.74-10.12L8.74-14.19L7.29-14.19ZM6.25-1.43L6.25-1.43Q7.11-1.43 7.68-1.68Q8.25-1.93 8.74-2.43L8.74-2.43L8.74-8.38Q8.22-8.81 7.56-9.00Q6.89-9.20 6.19-9.20L6.19-9.20Q5.52-9.20 4.92-8.95Q4.33-8.70 3.88-8.21Q3.44-7.73 3.18-7.03Q2.92-6.34 2.92-5.43L2.92-5.43Q2.92-4.45 3.17-3.70Q3.41-2.95 3.86-2.45Q4.30-1.94 4.91-1.68Q5.53-1.43 6.25-1.43Z" transform="translate(56.26318359375 83.1796875) " fill="rgb(0, 0, 0)" stroke="rgb(0, 0, 0)" stroke-width="0.035" data-glyph-w="13.001953125" data-glyph-h="25.3681640625" data-glyph-ascender="20.1796875" data-glyph-descender="-5.1884765625"></path><path d="M8.02 0L8.02-1.76L9.52-1.76L9.52-6.61Q9.52-7.83 8.90-8.46Q8.27-9.10 7.12-9.10L7.12-9.10Q6.45-9.10 5.77-8.78Q5.10-8.46 4.49-7.99L4.49-7.99L4.49-1.76L5.99-1.76L5.99 0L1.03 0L1.03-1.76L2.50-1.76L2.50-8.86L1.03-8.86L1.03-10.62L4.41-10.62L4.41-9.37L4.43-9.37Q4.77-9.67 5.15-9.94Q5.54-10.20 5.96-10.40Q6.38-10.59 6.83-10.71Q7.29-10.82 7.79-10.82L7.79-10.82Q8.64-10.82 9.33-10.58Q10.02-10.35 10.50-9.86Q10.98-9.38 11.24-8.63Q11.50-7.88 11.50-6.85L11.50-6.85L11.50-1.76L12.98-1.76L12.98 0L8.02 0Z" transform="translate(69.26513671875 83.1796875) " fill="rgb(0, 0, 0)" stroke="rgb(0, 0, 0)" stroke-width="0.035" data-glyph-w="14.0068359375" data-glyph-h="25.3681640625" data-glyph-ascender="20.1796875" data-glyph-descender="-5.1884765625"></path><path d="M0.98-1.24L0.98-1.24Q0.98-1.51 1.09-1.75Q1.20-1.99 1.38-2.17Q1.57-2.35 1.81-2.46Q2.05-2.56 2.33-2.56L2.33-2.56Q2.59-2.56 2.84-2.46Q3.08-2.35 3.26-2.17Q3.44-1.99 3.54-1.75Q3.65-1.51 3.65-1.24L3.65-1.24Q3.65-0.96 3.54-0.72Q3.44-0.47 3.26-0.28Q3.08-0.09 2.84 0.02Q2.59 0.12 2.33 0.12L2.33 0.12Q2.05 0.12 1.81 0.02Q1.57-0.09 1.38-0.28Q1.20-0.47 1.09-0.72Q0.98-0.96 0.98-1.24Z" transform="translate(83.27197265625 83.1796875) " fill="rgb(0, 0, 0)" stroke="rgb(0, 0, 0)" stroke-width="0.035" data-glyph-w="4.67578125" data-glyph-h="25.3681640625" data-glyph-ascender="20.1796875" data-glyph-descender="-5.1884765625"></path><path d="M8.02 0L8.02-1.76L9.52-1.76L9.52-6.61Q9.52-7.83 8.90-8.46Q8.27-9.10 7.12-9.10L7.12-9.10Q6.45-9.10 5.77-8.78Q5.10-8.46 4.49-7.99L4.49-7.99L4.49-1.76L5.99-1.76L5.99 0L1.03 0L1.03-1.76L2.50-1.76L2.50-8.86L1.03-8.86L1.03-10.62L4.41-10.62L4.41-9.37L4.43-9.37Q4.77-9.67 5.15-9.94Q5.54-10.20 5.96-10.40Q6.38-10.59 6.83-10.71Q7.29-10.82 7.79-10.82L7.79-10.82Q8.64-10.82 9.33-10.58Q10.02-10.35 10.50-9.86Q10.98-9.38 11.24-8.63Q11.50-7.88 11.50-6.85L11.50-6.85L11.50-1.76L12.98-1.76L12.98 0L8.02 0Z" transform="translate(87.94775390625 83.1796875) " fill="rgb(0, 0, 0)" stroke="rgb(0, 0, 0)" stroke-width="0.035" data-glyph-w="14.0068359375" data-glyph-h="25.3681640625" data-glyph-ascender="20.1796875" data-glyph-descender="-5.1884765625"></path><path d="M10.48-5.07L2.83-5.07Q2.83-4.61 2.90-4.24Q2.96-3.87 3.09-3.53L3.09-3.53Q3.47-2.50 4.30-1.98Q5.14-1.47 6.19-1.47L6.19-1.47Q7.02-1.47 7.81-1.70Q8.59-1.93 9.45-2.42L9.45-2.42L10.22-1.12Q9.18-0.40 8.12-0.05Q7.06 0.30 5.93 0.30L5.93 0.30Q4.85 0.30 3.93-0.06Q3.01-0.42 2.35-1.13Q1.69-1.84 1.32-2.89Q0.94-3.95 0.94-5.35L0.94-5.35Q0.94-6.49 1.26-7.50Q1.58-8.51 2.21-9.26Q2.84-10.02 3.77-10.46Q4.71-10.90 5.95-10.90L5.95-10.90Q7.15-10.90 7.95-10.54Q8.76-10.17 9.26-9.57Q9.77-8.97 10.03-8.20Q10.29-7.43 10.40-6.63L10.40-6.63Q10.45-6.24 10.46-5.84Q10.48-5.44 10.48-5.07L10.48-5.07ZM5.81-9.30L5.81-9.30Q5.15-9.30 4.65-9.11Q4.15-8.92 3.80-8.57Q3.46-8.21 3.25-7.70Q3.04-7.19 2.93-6.55L2.93-6.55L8.44-6.55Q8.40-7.15 8.25-7.65Q8.10-8.15 7.79-8.52Q7.49-8.89 7.00-9.10Q6.52-9.30 5.81-9.30Z" transform="translate(101.95458984375 83.1796875) " fill="rgb(0, 0, 0)" stroke="rgb(0, 0, 0)" stroke-width="0.035" data-glyph-w="12.04833984375" data-glyph-h="25.3681640625" data-glyph-ascender="20.1796875" data-glyph-descender="-5.1884765625"></path><path d="M4.10-14.05L4.10-10.62L6.59-10.62L6.59-9.07L4.08-9.07L4.05-2.94Q4.05-2.32 4.19-1.93Q4.34-1.54 4.66-1.39Q4.97-1.24 5.37-1.24L5.37-1.24Q5.80-1.24 6.13-1.32Q6.46-1.39 6.85-1.58L6.85-1.58L7.29-0.30Q6.80-0.04 6.25 0.11Q5.71 0.26 4.97 0.26L4.97 0.26Q4.28 0.26 3.76 0.09Q3.24-0.08 2.89-0.48Q2.53-0.88 2.36-1.55Q2.18-2.23 2.18-3.23L2.18-3.23L2.21-9.07L0.52-9.07L0.52-10.62L2.24-10.62L2.24-13.17L4.10-14.05Z" transform="translate(114.0029296875 83.1796875) " fill="rgb(0, 0, 0)" stroke="rgb(0, 0, 0)" stroke-width="0.035" data-glyph-w="7.8134765625" data-glyph-h="25.3681640625" data-glyph-ascender="20.1796875" data-glyph-descender="-5.1884765625"></path></g></svg></g>
        </g>
  </svg>