<svg xmlns="http://www.w3.org/2000/svg" xmlns:xlink="http://www.w3.org/1999/xlink" version="1.1" preserveAspectRatio="none" 
    viewBox="91 44.82416608636501 712.2392621876199 534" width="712.2392621876199" height="534">
      <path transform="translate(91, 44.82416608636501)" fill="#000000" d="M144.736068689,239.26187179671498L246.94519727349999,239.26187179671498L233.693854354,304.975498569915L233.29078135919843,306.3111551884769L232.6687760851125,307.53479994322277L231.8532957735203,308.6260670407304L230.86979766620001,309.5645906875775L229.7437390049297,310.33000509034173L228.50057703148752,310.9019444556009L227.16576898765157,311.2600429899328L225.7647721152,311.383934899915L140.0655133977,311.383934899915L138.21901479414765,311.1734883678941L136.53544253796872,310.5760917608666L135.05552821600546,309.64265956238506L133.8200034151,308.42410625600246L132.86959972209456,306.9713463252714L132.24504872383125,305.3352942537447L131.98708200715237,303.5668645249749L132.1364311589,301.71697162251496L132.8967541133,298.02397441541495L114.64900320769999,298.02397441541495L113.66486866933047,297.91599328154564L112.76347016673749,297.608172799729L111.96644635543203,297.12469734965225L111.29543589092499,296.48975131100246L110.77207742872733,295.72751906346673L110.41800962434999,294.86218498673213L110.25487113330391,293.91793346048587L110.30430061109999,292.918948864415L110.84908558510313,291.4254573468353L111.89283249795,290.25781852400246L113.28279789897186,289.4974955696009L114.8662383375,289.22595165731497L150.2755644997,289.22595165731497L151.500906403875,288.9781678373525L152.502224580425,288.30270235553996L153.1776900622375,287.30138417898996L153.42547388219998,286.076042274815L153.1776900622375,284.85070037063997L152.502224580425,283.84938219409L151.500906403875,283.1739167122775L150.2755644997,282.92613289231497L139.5224255731,282.92613289231497L138.11188223498812,282.7693587117044L136.83244369202345,282.32364483692436L135.71338577225018,281.62590426855206L134.7839843037125,280.71305000716495L134.0735151144545,279.62199505334036L133.61125403252032,278.3896524076556L133.42647688595412,277.052935070688L133.5484595028,275.648756043015L134.2985995605016,273.6936398745947L135.63934762741252,272.14583957457745L137.4281431495922,271.127549903504L139.5224255731,270.760965621915L153.42547388219998,270.760965621915L154.65081578637498,270.5131818018947L155.652133962925,269.83771632005244L156.3275994447375,268.8363981434915L156.5753832647,267.61105623931496L156.3275994447375,266.38571433514L155.652133962925,265.38439615859L154.65081578637498,264.70893067677747L153.42547388219998,264.461146856815L128.5520515168,264.352529291915L127.56791697843047,264.24454815804575L126.66651847583749,263.9367276762291L125.86949466453203,263.4532522261523L125.19848420002499,262.81830618750246L124.67512573782733,262.0560739399667L124.32105793344999,261.1907398632321L124.15791944240391,260.24648833698586L124.20734892019999,259.24750374091496L124.75213389420313,257.7540122233353L125.79588080705,256.58637340050245L127.18584620807187,255.82605044610094L128.7692866466,255.554506533815L160.05114534199998,255.554506533815L161.5157853189031,255.25071678194934L162.72585287802497,254.42759929784L163.54897036213436,253.21753173871812L163.85276011399998,251.752891761815L163.54897036213436,250.28825178491184L162.72585287802497,249.07818422578998L161.5157853189031,248.2550667416806L160.05114534199998,247.95127698981497L112.0421816498,247.95127698981497L111.05804711143048,247.84329585594563L110.1566486088375,247.53547537412905L109.35962479753204,247.05199992405227L108.688614333025,246.41705388540248L108.16525587082734,245.65482163786675L107.81118806645,244.78948756113215L107.64804957540392,243.8452360348859L107.69747905320001,242.846251438815L108.24226402720313,241.3527599212353L109.28601094005,240.18512109840248L110.67597634107187,239.42479814400093L112.2594167796,239.15325423171498L144.736068689,239.15325423171498ZM177.799610791987,251.74515408178493L179.873016660287,254.97515408178495L168.64016711088698,299.95515408178494L184.150167110887,299.95515408178494L188.628922527287,283.5951540817849L202.20016711088698,299.95515408178494L221.800167110887,299.95515408178494L200.167705513087,276.275154081785L230.949610791987,251.74515408178493L212.209610791987,251.74515408178493L193.210816974787,266.395154081785L197.479610791987,251.74515408178493ZM268.51926218762,266.395154081785L285.71926218761996,251.74515408178493L304.45926218761997,251.74515408178493L276.68926218762,276.275154081785L301.22926218761995,299.95515408178494L281.62926218762,299.95515408178494L266.04926218762,283.5951540817849L263.57926218762,299.95515408178494L248.06926218761998,299.95515408178494L253.77926218762,254.97515408178495L251.30926218762,251.74515408178493L270.98926218762,251.74515408178493ZM368.34462218761996,299.95515408178494L353.69462218762,299.95515408178494L351.99462218762,286.83515408178494L331.54462218762,286.83515408178494L325.84462218761996,299.95515408178494L311.95462218762,299.95515408178494L330.78462218762,254.12515408178493L328.31462218762,251.74515408178493L361.87462218762,251.74515408178493ZM432.05926218762,299.95515408178494L417.40926218762,299.95515408178494L415.70926218761997,286.83515408178494L395.25926218762,286.83515408178494L389.55926218762,299.95515408178494L375.66926218762,299.95515408178494L394.49926218762,254.12515408178493L392.02926218762,251.74515408178493L425.58926218761997,251.74515408178493ZM491.85390218762,294.2451540817849L491.72890218762,295.427029081785L491.35390218762,296.502654081785L490.72890218762,297.472029081785L489.85390218762,298.33515408178494L488.82452718762,299.04390408178494L487.73640218762,299.55015408178497L486.58952718762,299.85390408178495L485.38390218762,299.95515408178494L439.55390218762,299.95515408178494L445.26390218762,254.97515408178495L442.79390218762,251.74515408178493L497.65390218762,251.74515408178493ZM558.17036218762,251.85015408178492L559.23286218762,252.16515408178495L560.18036218762,252.68015408178496L560.98286218762,253.36515408178494L561.58786218762,254.19015408178495L561.96286218762,255.14515408178497L562.0653621876199,256.2351540817849L561.8728621876201,257.44515408178495L556.17286218762,299.95515408178494L510.34286218761997,299.95515408178494L509.19286218762,299.8476540817849L508.12286218762,299.525154081785L507.17786218762,299.01765408178494L506.38286218762,298.33515408178494L505.77286218762,297.49265408178496L505.40286218762,296.505154081785L505.29286218762,295.405154081785L505.48286218762,294.2451540817849L511.19286218762,251.74515408178493L557.0228621876199,251.74515408178493ZM609.7489421876201,281.9851540817849L613.83894218762,251.74515408178493L627.80894218762,251.74515408178493L621.2489421876201,299.95515408178494L604.8889421876199,299.95515408178494L588.53894218762,270.4851540817849L584.44894218762,299.95515408178494L569.70894218762,299.95515408178494L576.26894218762,254.97515408178495L572.94894218762,251.74515408178493L592.6289421876199,251.74515408178493ZM102.43122430430626,289.67739341148217L103.800823911875,290.6108256099775L104.70201027075625,291.99230526374157L104.9820399303,293.679271818815L104.63921574109062,295.36623837388845L103.705783542625,296.74771802765247L102.32430388887187,297.6811502261478L100.6373373338,298.023974415415L84.3447025966,298.023974415415L82.65773604152656,297.6811502261478L81.2762563877625,296.74771802765247L80.34282418926719,295.36623837388845L80,293.679271818815L80.34282418926719,291.99230526374157L81.2762563877625,290.6108256099775L82.65773604152656,289.67739341148217L84.3447025966,289.334569222215L100.7459548987,289.334569222215ZM461.61390218762,259.915154081785L456.76390218762,291.775154081785L476.35390218762,291.775154081785L481.29390218762,259.915154081785ZM525.93286218762,259.915154081785L521.84286218762,291.775154081785L540.66286218762,291.775154081785L545.5228621876199,259.915154081785ZM343.04462218762,259.915154081785L334.87462218762,278.655154081785L351.22462218761996,278.655154081785L348.75462218762,259.915154081785ZM406.75926218762,259.915154081785L398.58926218761997,278.655154081785L414.93926218762,278.655154081785L412.46926218761996,259.915154081785ZM115.90149950311562,255.89733072308218L117.28297915684999,256.8307629215775L118.21641135533437,258.2122425753415L118.5592355446,259.899209130415L118.21641135539062,261.58617568548846L117.282979156925,262.9676553392525L115.90149950317186,263.9010875377478L114.2145329481,264.24391172701496L113.6714451235,264.24391172701496L111.98447856842657,263.9010875377478L110.6029989146625,262.9676553392525L109.6695667161672,261.58617568548846L109.3267425269,259.899209130415L109.6695667161672,258.2122425753415L110.6029989146625,256.8307629215775L111.98447856842657,255.89733072308218L113.6714451235,255.554506533815L114.2145329481,255.554506533815ZM100.26057015547343,239.49607842098214L101.64204980923749,240.42951061947747L102.5754820077328,241.81099027324154L102.91830619699999,243.49795682831498L102.5754820077328,245.18492338338842L101.64204980923749,246.5664030371525L100.26057015547343,247.49983523564782L98.57360360039999,247.84265942491498L96.50986986699999,247.84265942491498L94.82290331192655,247.49983523564782L93.44142365816249,246.5664030371525L92.50799145966718,245.18492338338842L92.16516727039999,243.49795682831498L92.50799145966718,241.81099027324154L93.44142365816249,240.42951061947747L94.82290331192655,239.49607842098214L96.50986986699999,239.15325423171498L98.57360360039999,239.15325423171498ZM270.7327025142682,223.20484591819903L280.67684269905,214.484845918215L285.59684269905,214.484845918215L275.63270251425,223.204845918215L281.24606904945,231.934845918215L276.32606904945,231.934845918215L270.7327025142602,223.204845918231L268.55606904945,231.934845918215L264.47606904945,231.934845918215L268.82684269905,214.484845918215L272.90684269905,214.484845918215ZM301.13172904945,231.934845918215L297.07172904944997,231.934845918215L294.79283180705,218.69484591821498L287.70740793715,229.224845918215L292.70740793715,229.224845918215L293.29172904945,231.934845918215L281.83172904945,231.934845918215L293.59250269905,214.484845918215L298.08250269905,214.484845918215ZM320.79347904945,231.934845918215L316.73347904945,231.934845918215L314.45458180705,218.69484591821498L307.36915793715,229.224845918215L312.36915793715,229.224845918215L312.95347904945,231.934845918215L301.49347904945,231.934845918215L313.25425269904997,214.484845918215L317.74425269905,214.484845918215ZM338.583013778475,214.687345918215L339.89404701675,215.294845918215L340.90093877405,216.24984591821504L341.54552541055,217.494845918215L341.788383206375,218.95734591821497L341.59507500185,220.544845918215L340.26615674665,225.874845918215L339.66847186214994,227.45984591821502L338.69819961805,228.914845918215L337.43091629447497,230.167345918215L335.94718473175,231.124845918215L334.333217970025,231.732345918215L332.69522904945,231.934845918215L322.01522904945,231.934845918215L326.36600269905,214.484845918215L337.04600269905,214.484845918215ZM358.96500673867496,214.61734591821502L359.82839885755,215.014845918215L360.48756885577495,215.639845918215L360.90936653345,216.454845918215L361.06875829075,217.40984591821498L360.94569708785,218.434845918215L358.57209450075,227.954845918215L358.18340997785003,228.982345918215L357.54593177515,229.94484591821498L356.71523617275,230.769845918215L355.74191289095,231.40484591821502L354.68030500982496,231.802345918215L353.59976904945,231.934845918215L344.79976904945,231.934845918215L343.80405164984995,231.79734591821497L342.95689945105,231.384845918215L342.297099412825,230.752345918215L341.86842505515,229.934845918215L341.70903329785,228.979845918215L341.83209450075,227.954845918215L344.20569708785,218.434845918215L344.59375829075,217.40984591821498L345.22936653345,216.454845918215L346.065068855775,215.639845918215L347.03839885754996,215.014845918215L348.08750673867496,214.61734591821502L349.15054269905,214.484845918215L357.95054269905,214.484845918215ZM373.74555930534996,226.354845918215L376.70508269904997,214.484845918215L380.75508269905004,214.484845918215L376.40430904945003,231.934845918215L372.35430904944997,231.934845918215L366.68383244315,220.06484591821498L363.72430904944997,231.934845918215L359.66430904945,231.934845918215L364.01508269905,214.484845918215L368.07508269905,214.484845918215ZM382.41884904945,231.934845918215L379.22884904945,231.934845918215L380.02669865855,228.734845918215L383.21669865855,228.734845918215ZM405.65236381135,217.19484591821498L395.46236381135,217.19484591821498L394.47623141085,217.369845918215L393.55783420935,217.894845918215L392.829611727125,218.679845918215L392.41400348445,219.634845918215L390.63878810414997,226.75484591821498L390.58129646147495,227.69734591821498L390.91745065925,228.484845918215L391.57218349775,229.01734591821497L392.47042777725,229.19484591821498L402.66042777725,229.19484591821498L401.97726904945,231.934845918215L390.41726904945,231.934845918215L389.09590144995,231.75984591821498L387.99179865145,231.234845918215L387.13687093379997,230.412345918215L386.58302857685,229.34484591821501L386.367818620325,228.102345918215L386.52878810414995,226.75484591821498L388.30400348445,219.634845918215L388.814349648275,218.289845918215L389.64726973175,217.054845918215L390.73155741479997,215.994845918215L391.99600637715,215.174845918215L393.360033618575,214.65734591821501L394.76804269905,214.484845918215L406.32804269905,214.484845918215ZM422.187046738675,214.61734591821502L423.05043885755003,215.014845918215L423.709608855775,215.639845918215L424.13140653345,216.454845918215L424.29079829075,217.40984591821498L424.16773708785,218.434845918215L421.79413450075003,227.954845918215L421.40544997784997,228.982345918215L420.76797177515,229.94484591821498L419.93727617275,230.769845918215L418.96395289095,231.40484591821502L417.90234500982496,231.802345918215L416.82180904945,231.934845918215L408.02180904945,231.934845918215L407.02609164984995,231.79734591821497L406.17893945105,231.384845918215L405.519139412825,230.752345918215L405.09046505515,229.934845918215L404.93107329785,228.979845918215L405.05413450075,227.954845918215L407.42773708785,218.434845918215L407.81579829074997,217.40984591821498L408.45140653345,216.454845918215L409.287108855775,215.639845918215L410.26043885754996,215.014845918215L411.30954673867495,214.61734591821502L412.37258269905,214.484845918215L421.17258269905,214.484845918215ZM434.97260619585,222.644845918215L442.41460253915,214.454845918215L446.50460253915,214.454845918215L442.14634904945,231.934845918215L438.05634904945,231.934845918215L440.89120844175,220.56484591821498L436.24215578714995,225.69484591821498L432.20215578715,225.69484591821498L429.96112780215003,220.44484591821498L427.09634904945,231.934845918215L423.01634904945,231.934845918215L427.37460253915003,214.454845918215L431.45460253914996,214.454845918215ZM329.75032381135,217.19484591821498L326.75838777725,229.19484591821498L332.03838777725,229.19484591821498L332.92081385755,229.08484591821497L333.80809209845,228.75484591821498L334.63023593997497,228.224845918215L335.33227226195,227.534845918215L335.862981304225,226.729845918215L336.18615674665,225.874845918215L337.51507500185,220.544845918215L337.62386032435,219.66734591821498L337.49643932665,218.854845918215L337.138475648625,218.164845918215L336.58061949015,217.634845918215L335.85789773105,217.304845918215L335.03032381135,217.19484591821498ZM350.62486381135,217.19484591821498L349.79496461092504,217.34484591821501L349.02526700965,217.794845918215L348.41133384777504,218.45234591821497L348.06374140555,219.244845918215L346.08906362305,227.164845918215L346.045211100825,227.94234591821504L346.33252457895003,228.59484591821501L346.877826977675,229.04484591821497L347.63292777724996,229.19484591821498L352.15292777725,229.19484591821498L352.96782697767503,229.04484591821497L353.73252457895,228.59484591821501L354.34521110082494,227.94234591821504L354.68906362305,227.164845918215L356.66374140555,219.244845918215L356.711333847775,218.45234591821497L356.42526700965,217.794845918215L355.88496461092495,217.34484591821501L355.14486381135,217.19484591821498ZM413.84690381135,217.19484591821498L413.017004610925,217.34484591821501L412.24730700965,217.794845918215L411.633373847775,218.45234591821497L411.28578140555,219.244845918215L409.31110362305003,227.164845918215L409.267251100825,227.94234591821504L409.55456457895,228.59484591821501L410.099866977675,229.04484591821497L410.85496777724995,229.19484591821498L415.37496777725,229.19484591821498L416.189866977675,229.04484591821497L416.95456457895,228.59484591821501L417.567251100825,227.94234591821504L417.91110362305,227.164845918215L419.88578140555,219.244845918215L419.933373847775,218.45234591821497L419.64730700965004,217.794845918215L419.107004610925,217.34484591821501L418.36690381134997,217.19484591821498ZM244.41114099835505,211.99186226165443L246.06777100696564,212.5877738629119L247.52838025389963,213.51717533144586L248.750964290225,214.72787932161498L249.69351866700976,216.16769848777787L250.3140389353219,217.78444548429312L250.5705206462293,219.52593296551925L250.4209593508,221.339973585815L249.00893100689999,228.182880175415L131.9191960291,228.182880175415L130.23222947402655,227.84005598614783L128.85074982026248,226.9066237876525L127.91731762176717,225.52514413388843L127.57449343249999,223.838177578815L127.91731762176717,222.15121102374155L128.85074982026248,220.76973136997748L130.23222947402655,219.83629917148215L131.9191960291,219.493474982215L148.7549185909,219.493474982215L148.9721537207,218.190064203315L149.37522671546856,216.85440758475306L149.99723198952967,215.6307628300072L150.81271230110409,214.53949573249957L151.7962104084125,213.60097208565247L152.92226906967562,212.8355576828882L154.1654310431141,212.26361831762904L155.50023908694865,211.90551978329722L156.9012359594,211.781627873315L242.600494677,211.781627873315ZM119.70311427515782,219.83629917148215L121.0845939288875,220.76973136997748L122.01802612734843,222.15121102374155L122.3608503166,223.838177578815L122.01802612739063,225.52514413388843L121.084593928925,226.9066237876525L119.70311427517188,227.84005598614783L118.01614772010001,228.182880175415L116.4955018113,228.182880175415L114.80853525622658,227.84005598614783L113.4270556024625,226.9066237876525L112.49362340396719,225.52514413388843L112.1507992147,223.838177578815L112.49362340396719,222.15121102374155L113.4270556024625,220.76973136997748L114.80853525622658,219.83629917148215L116.4955018113,219.493474982215L118.01614772010001,219.493474982215Z" /></svg>