<svg data-noselect="" viewBox="91 44.82416608636501 712.2392621876199 534" width="712.2392621876199" height="534" ref="svg_canvas" preserveAspectRatio="none" version="1.1" xmlns="http://www.w3.org/2000/svg" style="background: none;">
    <defs></defs>
    <g id="shape_uArApExWov" class="" ref="shape_uArApExWov" key="shape_uArApExWov" transform="translate(171,256.60579395968) rotate(0,85.319097240321,49.801153513287) scale(1,1)" style="cursor:move;display:inline;opacity:1;" filter="">
            <g style="display:inline"><rect fill="rgba(0,0,0,0)" width="190.63819448064166" height="119.60230702657445" x="-10" y="-10"></rect><svg version="1.1" id="图层_1" xmlns="http://www.w3.org/2000/svg" xmlns:xlink="http://www.w3.org/1999/xlink" x="0px" y="0px" width="170.63819448064166" height="99.60230702657445" viewBox="0 0 157.1 91.7" enable-background="new 0 0 157.1 91.7" xml:space="preserve" class="style-removed" preserveAspectRatio="none" data-parent="shape_uArApExWov">
<g>
	<g>
		<path fill="#26AEE9" d="M149.7,0H70.8c-3.5,0-6.6,2.5-7.3,5.9l-0.2,1.2H47.8c-2.2,0-4,1.8-4,4c0,2.2,1.8,4,4,4h13.8h44.7h49.3
			l1.3-6.3C157.8,4.3,154.3,0,149.7,0z" stroke-width="0"></path>
		<path fill="#26AEE9" d="M35,7.1h-1.4c-2.2,0-4,1.8-4,4c0,2.2,1.8,4,4,4H35c2.2,0,4-1.8,4-4C39,8.9,37.2,7.1,35,7.1z" stroke-width="0"></path>
	</g>
	<g>
		<path fill="#20398A" d="M17.1,25.2h-1.9c-2.2,0-4,1.8-4,4c0,2.2,1.8,4,4,4h1.9c2.2,0,4-1.8,4-4C21.1,27,19.3,25.2,17.1,25.2z" stroke-width="0"></path>
		<path fill="#20398A" d="M19.1,71.4H4c-2.2,0-4,1.8-4,4c0,2.2,1.8,4,4,4h15c2.2,0,4-1.8,4-4C23.1,73.2,21.3,71.4,19.1,71.4z" stroke-width="0"></path>
		<path fill="#20398A" d="M31,48.3h0.5c2.2,0,4-1.8,4-4c0-2.2-1.8-4-4-4H31c-2.2,0-4,1.8-4,4C27,46.5,28.8,48.3,31,48.3z" stroke-width="0"></path>
		<path fill="#20398A" d="M59.6,25.2L59.6,25.2l-29.9,0c-2,0-3.9,1.4-4.2,3.4c-0.4,2.5,1.5,4.7,4,4.7H58h15.7c1.9,0,3.5,1.6,3.5,3.5
			c0,1.9-1.6,3.5-3.5,3.5l-28.8,0c-2,0-3.9,1.4-4.2,3.4c-0.4,2.5,1.5,4.7,4,4.7l22.9,0.1c1.6,0,2.9,1.3,2.9,2.9
			c0,1.6-1.3,2.9-2.9,2.9H54.8c-2.7,0-5,1.9-5.5,4.5l0,0c-0.7,3.5,1.9,6.7,5.5,6.7h9.9c1.6,0,2.9,1.3,2.9,2.9c0,1.6-1.3,2.9-2.9,2.9
			l-32.6,0c-2,0-3.9,1.4-4.2,3.4c-0.4,2.5,1.5,4.7,4,4.7h16.8L48,82.8c-0.9,4.6,2.6,8.9,7.3,8.9h78.9c3.5,0,6.6-2.5,7.3-5.9
			l12.2-60.5H59.6z" stroke-width="0"></path>
	</g>
</g>
</svg></g>
        </g><g id="shape_fw3uoCwG7w" class="brand_slogan" ref="shape_fw3uoCwG7w" key="shape_fw3uoCwG7w" transform="translate(329.06606904945,175.27901200458) rotate(0,141.02403781855,91.48) scale(1,1)" style="cursor:move;display:inline;opacity:1;" filter="">
            <g style="display:inline"><svg xmlns="http://www.w3.org/2000/svg" version="1.1" xmlns:xlink="http://www.w3.org/1999/xlink" width="281.48" height="182.96" viewBox="0 0 281.48 182.96" preserveAspectRatio="none" data-parent="shape_fw3uoCwG7w"><rect fill="rgba(0,0,0,0)" width="180" height="30" x="25.37" y="76.48"></rect><g data-width="179.8733" transform="translate(25.37, 0)"><path d="M1.04-17.45L5.12-17.45L5.12 0L1.04 0L1.04-17.45ZM12.89-17.45L17.81-17.45L10.02-8.73L17.81 0L12.89 0L5.12-8.73L12.89-17.45Z" transform="translate(0 101.48) skewX(-14)" fill="#20398a" stroke="#20398a" stroke-width="0.042" data-glyph-w="18.21566" data-glyph-h="30.444" data-glyph-ascender="25.37" data-glyph-descender="-5.074"></path><path d="M19.48 0L15.42 0L9.84-13.24L5.38-2.71L10.38-2.71L11.64 0L0.18 0L7.59-17.45L12.08-17.45L19.48 0Z" transform="translate(18.21566 101.48) skewX(-14)" fill="#20398a" stroke="#20398a" stroke-width="0.042" data-glyph-w="19.66175" data-glyph-h="30.444" data-glyph-ascender="25.37" data-glyph-descender="-5.074"></path><path d="M19.48 0L15.42 0L9.84-13.24L5.38-2.71L10.38-2.71L11.64 0L0.18 0L7.59-17.45L12.08-17.45L19.48 0Z" transform="translate(37.87741 101.48) skewX(-14)" fill="#20398a" stroke="#20398a" stroke-width="0.042" data-glyph-w="19.66175" data-glyph-h="30.444" data-glyph-ascender="25.37" data-glyph-descender="-5.074"></path><path d="M1.04-17.45L11.72-17.45Q13.37-17.45 14.77-16.64Q16.16-15.83 16.97-14.44Q17.78-13.04 17.78-11.39L17.78-11.39L17.78-6.06Q17.78-4.41 16.97-3.02Q16.16-1.62 14.77-0.81Q13.37 0 11.72 0L11.72 0L1.04 0L1.04-17.45ZM10.38-2.74Q11.26-2.74 12.04-3.18Q12.81-3.63 13.26-4.40Q13.70-5.18 13.70-6.06L13.70-6.06L13.70-11.39Q13.70-12.30 13.26-13.08Q12.81-13.85 12.04-14.30Q11.26-14.74 10.38-14.74L10.38-14.74L5.10-14.74L5.10-2.74L10.38-2.74Z" transform="translate(57.539159999999995 101.48) skewX(-14)" fill="#20398a" stroke="#20398a" stroke-width="0.042" data-glyph-w="18.82454" data-glyph-h="30.444" data-glyph-ascender="25.37" data-glyph-descender="-5.074"></path><path d="M1.04-13.50Q1.04-14.56 1.57-15.48Q2.11-16.39 3.02-16.92Q3.93-17.45 5.00-17.45L5.00-17.45L13.80-17.45Q14.89-17.45 15.81-16.92Q16.72-16.39 17.25-15.48Q17.78-14.56 17.78-13.50L17.78-13.50L17.78-3.98Q17.78-2.92 17.25-1.99Q16.72-1.07 15.81-0.53Q14.89 0 13.80 0L13.80 0L5.00 0Q3.93 0 3.02-0.55Q2.11-1.09 1.57-2.00Q1.04-2.92 1.04-3.98L1.04-3.98L1.04-13.50ZM11.67-2.74Q12.51-2.74 13.10-3.34Q13.70-3.93 13.70-4.77L13.70-4.77L13.70-12.69Q13.70-13.55 13.10-14.14Q12.51-14.74 11.67-14.74L11.67-14.74L7.15-14.74Q6.29-14.74 5.70-14.14Q5.10-13.55 5.10-12.69L5.10-12.69L5.10-4.77Q5.10-3.93 5.70-3.34Q6.29-2.74 7.15-2.74L7.15-2.74L11.67-2.74Z" transform="translate(76.3637 101.48) skewX(-14)" fill="#20398a" stroke="#20398a" stroke-width="0.042" data-glyph-w="18.82454" data-glyph-h="30.444" data-glyph-ascender="25.37" data-glyph-descender="-5.074"></path><path d="M13.73-5.58L13.73-17.45L17.78-17.45L17.78 0L13.73 0L5.10-11.87L5.10 0L1.04 0L1.04-17.45L5.10-17.45L13.73-5.58Z" transform="translate(95.18824 101.48) skewX(-14)" fill="#20398a" stroke="#20398a" stroke-width="0.042" data-glyph-w="18.82454" data-glyph-h="30.444" data-glyph-ascender="25.37" data-glyph-descender="-5.074"></path><path d="M4.97-3.20L4.97 0L1.78 0L1.78-3.20L4.97-3.20Z" transform="translate(114.01277999999999 101.48) skewX(-14)" fill="#20398a" stroke="#20398a" stroke-width="0.042" data-glyph-w="6.74842" data-glyph-h="30.444" data-glyph-ascender="25.37" data-glyph-descender="-5.074"></path><path d="M17.78-2.74L17.78 0L6.22 0Q4.79 0 3.62-0.70Q2.44-1.40 1.74-2.59Q1.04-3.78 1.04-5.18L1.04-5.18L1.04-12.30Q1.04-13.70 1.74-14.88Q2.44-16.06 3.62-16.76Q4.79-17.45 6.22-17.45L6.22-17.45L17.78-17.45L17.78-14.74L7.59-14.74Q6.57-14.74 5.86-14.04Q5.15-13.34 5.15-12.30L5.15-12.30L5.15-5.18Q5.15-4.16 5.86-3.45Q6.57-2.74 7.59-2.74L7.59-2.74L17.78-2.74Z" transform="translate(120.76119999999999 101.48) skewX(-14)" fill="#20398a" stroke="#20398a" stroke-width="0.042" data-glyph-w="18.82454" data-glyph-h="30.444" data-glyph-ascender="25.37" data-glyph-descender="-5.074"></path><path d="M1.04-13.50Q1.04-14.56 1.57-15.48Q2.11-16.39 3.02-16.92Q3.93-17.45 5.00-17.45L5.00-17.45L13.80-17.45Q14.89-17.45 15.81-16.92Q16.72-16.39 17.25-15.48Q17.78-14.56 17.78-13.50L17.78-13.50L17.78-3.98Q17.78-2.92 17.25-1.99Q16.72-1.07 15.81-0.53Q14.89 0 13.80 0L13.80 0L5.00 0Q3.93 0 3.02-0.55Q2.11-1.09 1.57-2.00Q1.04-2.92 1.04-3.98L1.04-3.98L1.04-13.50ZM11.67-2.74Q12.51-2.74 13.10-3.34Q13.70-3.93 13.70-4.77L13.70-4.77L13.70-12.69Q13.70-13.55 13.10-14.14Q12.51-14.74 11.67-14.74L11.67-14.74L7.15-14.74Q6.29-14.74 5.70-14.14Q5.10-13.55 5.10-12.69L5.10-12.69L5.10-4.77Q5.10-3.93 5.70-3.34Q6.29-2.74 7.15-2.74L7.15-2.74L11.67-2.74Z" transform="translate(139.58574 101.48) skewX(-14)" fill="#20398a" stroke="#20398a" stroke-width="0.042" data-glyph-w="18.82454" data-glyph-h="30.444" data-glyph-ascender="25.37" data-glyph-descender="-5.074"></path><path d="M10.81-9.29L16.21-17.48L20.30-17.48L20.30 0L16.21 0L16.21-11.37L12.84-6.24L8.80-6.24L5.25-11.49L5.25 0L1.17 0L1.17-17.48L5.25-17.48L10.81-9.29Z" transform="translate(158.41028 101.48) skewX(-14)" fill="#20398a" stroke="#20398a" stroke-width="0.042" data-glyph-w="21.46302" data-glyph-h="30.444" data-glyph-ascender="25.37" data-glyph-descender="-5.074"></path></g></svg></g>
        </g><g id="shape_KAB8fa2uvB" class="brand_name" ref="shape_KAB8fa2uvB" key="shape_KAB8fa2uvB" transform="translate(250.05926218762,9.169320168149966) rotate(0,251.51538763337,311.72) scale(1,1)" style="cursor:move;display:inline;opacity:1;" filter="">
            <g style="display:inline"><svg xmlns="http://www.w3.org/2000/svg" version="1.1" xmlns:xlink="http://www.w3.org/1999/xlink" width="728.72" height="623.44" viewBox="0 0 728.72 623.44" preserveAspectRatio="none" data-parent="shape_KAB8fa2uvB"><rect fill="rgba(0,0,0,0)" width="388" height="102" x="85.18" y="260.72"></rect><g data-width="387.39864" transform="translate(85.18, 0)"><path d="M7.07-53.32L26.75-53.32L24.28-38.67L41.48-53.32L60.22-53.32L32.45-28.79L56.99-5.11L37.39-5.11L21.81-21.47L19.34-5.11L3.83-5.11L9.54-50.09L7.07-53.32Z" transform="translate(0 340.72) " fill="#20398a" stroke="#20398a" stroke-width="0.142" data-glyph-w="64.05536000000001" data-glyph-h="110.73400000000001" data-glyph-ascender="85.18" data-glyph-descender="-25.554000000000002"></path><path d="M20.02-53.32L53.58-53.32L60.05-5.11L45.40-5.11L43.70-18.23L23.25-18.23L17.55-5.11L3.66-5.11L22.49-50.94L20.02-53.32ZM40.46-45.15L34.75-45.15L26.58-26.41L42.93-26.41L40.46-45.15Z" transform="translate(64.05536000000001 340.72) " fill="#20398a" stroke="#20398a" stroke-width="0.142" data-glyph-w="63.71464" data-glyph-h="110.73400000000001" data-glyph-ascender="85.18" data-glyph-descender="-25.554000000000002"></path><path d="M20.02-53.32L53.58-53.32L60.05-5.11L45.40-5.11L43.70-18.23L23.25-18.23L17.55-5.11L3.66-5.11L22.49-50.94L20.02-53.32ZM40.46-45.15L34.75-45.15L26.58-26.41L42.93-26.41L40.46-45.15Z" transform="translate(127.77000000000001 340.72) " fill="#20398a" stroke="#20398a" stroke-width="0.142" data-glyph-w="63.71464" data-glyph-h="110.73400000000001" data-glyph-ascender="85.18" data-glyph-descender="-25.554000000000002"></path><path d="M7.07-53.32L61.93-53.32L56.13-10.82Q56.13-8.35 54.13-6.73Q52.13-5.11 49.66-5.11L49.66-5.11L3.83-5.11L9.54-50.09L7.07-53.32ZM45.57-45.15L25.89-45.15L21.04-13.29L40.63-13.29L45.57-45.15Z" transform="translate(191.48464 340.72) " fill="#20398a" stroke="#20398a" stroke-width="0.142" data-glyph-w="65.75896" data-glyph-h="110.73400000000001" data-glyph-ascender="85.18" data-glyph-descender="-25.554000000000002"></path><path d="M9.71-53.32L55.54-53.32Q56.73-53.32 57.75-52.90Q58.77-52.47 59.50-51.70Q60.22-50.94 60.48-49.92Q60.73-48.89 60.39-47.62L60.39-47.62L54.69-5.11L8.86-5.11Q7.67-5.11 6.64-5.54Q5.62-5.96 4.90-6.73Q4.17-7.50 3.92-8.56Q3.66-9.63 4.00-10.82L4.00-10.82L9.71-53.32ZM44.04-45.15L24.45-45.15L20.36-13.29L39.18-13.29L44.04-45.15Z" transform="translate(257.2436 340.72) " fill="#20398a" stroke="#20398a" stroke-width="0.142" data-glyph-w="64.39608" data-glyph-h="110.73400000000001" data-glyph-ascender="85.18" data-glyph-descender="-25.554000000000002"></path><path d="M7.07-53.32L26.75-53.32L43.87-23.08L47.96-53.32L61.93-53.32L55.37-5.11L39.01-5.11L22.66-34.58L18.57-5.11L3.83-5.11L10.39-50.09L7.07-53.32Z" transform="translate(321.63968 340.72) " fill="#20398a" stroke="#20398a" stroke-width="0.142" data-glyph-w="65.75896" data-glyph-h="110.73400000000001" data-glyph-ascender="85.18" data-glyph-descender="-25.554000000000002"></path></g></svg></g>
        </g><g id="shape_5L2JqXCHeZ" class="brand_first" ref="shape_5L2JqXCHeZ" key="shape_5L2JqXCHeZ" transform="translate(169.530418004687,9.169320168149966) rotate(0,117.137809479867,311.72) scale(1,1)" style="cursor:move;display:inline;opacity:1;" filter="">
            <g style="display:inline"><svg xmlns="http://www.w3.org/2000/svg" version="1.1" xmlns:xlink="http://www.w3.org/1999/xlink" width="405.72" height="623.44" viewBox="0 0 405.72 623.44" preserveAspectRatio="none" data-parent="shape_5L2JqXCHeZ"><rect fill="rgba(0,0,0,0)" width="65" height="102" x="85.18" y="260.72"></rect><g data-width="64.05536000000001" transform="translate(85.65232, 0)"><path d="M7.07-53.32L26.75-53.32L24.28-38.67L41.48-53.32L60.22-53.32L32.45-28.79L56.99-5.11L37.39-5.11L21.81-21.47L19.34-5.11L3.83-5.11L9.54-50.09L7.07-53.32Z" transform="translate(0 340.72) skewX(-7)" fill="#FFFFFF" stroke="#FFFFFF" stroke-width="0.142" data-glyph-w="64.05536000000001" data-glyph-h="110.73400000000001" data-glyph-ascender="85.18" data-glyph-descender="-25.554000000000002"></path></g></svg></g>
        </g>
  </svg>