<?xml version="1.0" standalone="no"?><svg data-noselect="" 
  viewBox="106.00002148438 56.56968358872001 602 452" 
  width="602" 
  height="452" 
  ref="svg_canvas" 
  preserveAspectRatio="none" 
  version="1.1" xmlns="http://www.w3.org/2000/svg" 
  style="background: #ffffff;">
    <defs></defs>
    <g id="shape_BwJcYnEnBE" class="icon"  ref="shape_BwJcYnEnBE" key="shape_BwJcYnEnBE" transform="translate(360.4166035209755,192.74864196777003) rotate(0,49.475871313675,49.475871313675) scale(1,1)" style="cursor:move;display:inline;opacity:1;" filter="">
            <g style="display:inline"><rect fill="rgba(0,0,0,0)" width="113.16682202337887" height="118.95174262735" x="-10" y="-10"></rect><svg version="1.1" id="图层_1" xmlns="http://www.w3.org/2000/svg" xmlns:xlink="http://www.w3.org/1999/xlink" x="0px" y="0px" viewBox="0 0.0034095048904418945 123.89999389648438 131.59320068359375" enable-background="new 0 0 123.9 131.6" xml:space="preserve" width="93.16682202337887" height="98.95174262735" class="style-removed" preserveAspectRatio="none" data-parent="shape_BwJcYnEnBE">
<g>
	<path fill="#47A880" d="M38.7,77.1c0.9,0.9,2.2,1.5,3.6,1.5c2.7,0,5-2.2,5-5s-2.2-5-5-5c-2.7,0-5,2.2-5,5c0,0.3,0,0.5,0.1,0.7
		l-13.7,6c-2.2-3.8-6.3-6.4-11-6.4C5.7,74,0,79.7,0,86.7c0,7,5.7,12.7,12.7,12.7s12.7-5.7,12.7-12.7c0-1.2-0.2-2.4-0.5-3.5
		L38.7,77.1z"></path>
	<path fill="#47A880" d="M61.8,107.9c-1.1-0.6-2.2-1-3.3-1.3l1.7-15c1.3-0.3,2.4-1.1,3.1-2.3c1.4-2.4,0.6-5.4-1.8-6.8
		s-5.4-0.6-6.8,1.8s-0.6,5.4,1.8,6.8c0.2,0.1,0.4,0.2,0.7,0.3l-1.7,14.9c-4.4,0-8.7,2.3-11,6.3c-3.5,6.1-1.4,13.8,4.6,17.3
		c6.1,3.5,13.8,1.4,17.3-4.6C69.9,119.2,67.8,111.4,61.8,107.9z"></path>
	<path fill="#47A880" d="M98.3,87c-1.1,0.6-2,1.4-2.8,2.2l-12.2-9c0.4-1.2,0.2-2.6-0.5-3.8c-1.4-2.4-4.4-3.2-6.8-1.8
		s-3.2,4.4-1.8,6.8c1.4,2.4,4.4,3.2,6.8,1.8c0.2-0.1,0.4-0.3,0.6-0.4l12,8.9c-2.2,3.8-2.4,8.6,0,12.7c3.5,6.1,11.3,8.2,17.3,4.6
		c6.1-3.5,8.2-11.3,4.6-17.3C112.2,85.6,104.4,83.5,98.3,87z"></path>
	<path fill="#47A880" d="M111.2,32.2c-7,0-12.7,5.7-12.7,12.7c0,1.2,0.2,2.4,0.5,3.5l-13.9,6.1C84.3,53.6,83,53,81.6,53
		c-2.7,0-5,2.2-5,5s2.2,5,5,5c2.7,0,5-2.2,5-5c0-0.3,0-0.5-0.1-0.7l13.7-6c2.2,3.8,6.3,6.4,11,6.4c7,0,12.7-5.7,12.7-12.7
		C123.9,37.9,118.2,32.2,111.2,32.2z"></path>
	<path fill="#47A880" d="M62.1,23.7c1.1,0.6,2.2,1,3.3,1.3l-1.7,15c-1.3,0.3-2.4,1.1-3.1,2.3c-1.4,2.4-0.6,5.4,1.8,6.8
		s5.4,0.6,6.8-1.8c1.4-2.4,0.6-5.4-1.8-6.8c-0.2-0.1-0.4-0.2-0.7-0.3l1.7-14.9c4.4,0,8.7-2.3,11-6.3C83,13,80.9,5.2,74.8,1.7
		C68.8-1.8,61,0.3,57.5,6.3C54,12.4,56.1,20.2,62.1,23.7z"></path>
	<path fill="#47A880" d="M25.6,44.6c1.1-0.6,2-1.4,2.8-2.2l12.2,9c-0.4,1.2-0.2,2.6,0.5,3.8c1.4,2.4,4.4,3.2,6.8,1.8
		c2.4-1.4,3.2-4.4,1.8-6.8c-1.4-2.4-4.4-3.2-6.8-1.8c-0.2,0.1-0.4,0.3-0.6,0.4l-12-8.9c2.2-3.8,2.4-8.6,0-12.7
		c-3.5-6.1-11.3-8.2-17.3-4.6c-6.1,3.5-8.2,11.3-4.6,17.3S19.5,48.1,25.6,44.6z"></path>
	<ellipse transform="matrix(0.1183 -0.993 0.993 0.1183 -57.2497 123.7325)" fill="#47A880" cx="41" cy="94.1" rx="9.2" ry="9.2"></ellipse>
	<path fill="#47A880" d="M73.3,90.7c-4.4,2.5-5.9,8.2-3.4,12.6s8.2,5.9,12.6,3.4s5.9-8.2,3.4-12.6S77.7,88.2,73.3,90.7z"></path>
	<circle fill="#47A880" cx="100.4" cy="69.1" r="9.2"></circle>
	<path fill="#47A880" d="M78,30.2c-2.5,4.4-1,10.1,3.4,12.6s10.1,1,12.6-3.4s1-10.1-3.4-12.6S80.5,25.8,78,30.2z"></path>
	<path fill="#47A880" d="M53.7,38.2c4.4-2.5,5.9-8.2,3.4-12.6c-2.5-4.4-8.2-5.9-12.6-3.4s-5.9,8.2-3.4,12.6S49.3,40.7,53.7,38.2z"></path>
	<circle fill="#47A880" cx="26.6" cy="59.8" r="9.2"></circle>
	<ellipse transform="matrix(0.982 -0.1891 0.1891 0.982 -11.3256 12.9032)" fill="#47A880" cx="62" cy="65.8" rx="9" ry="9"></ellipse>
</g>
</svg></g>
        </g><g id="shape_9E1o3FQheA" class="brand_name"  ref="shape_9E1o3FQheA" key="shape_9E1o3FQheA" transform="translate(132.00002148438,132.24073410033998) rotate(0,343.178,189) scale(1,1)" style="cursor:move;display:inline;opacity:1;" filter="">
            <g style="display:inline"><svg xmlns="http://www.w3.org/2000/svg" version="1.1" xmlns:xlink="http://www.w3.org/1999/xlink" width="658" height="378" viewBox="0 0 658 378" preserveAspectRatio="none" data-parent="shape_9E1o3FQheA"><rect fill="rgba(0,0,0,0)" width="442" height="54" x="54" y="162"></rect><g data-width="441.2339999999999" transform="translate(54.38300000000004, 0)"><path d="M7.88-24.89L7.88-15.71Q7.88-14.74 8.13-13.58Q8.37-12.42 9.04-11.45Q9.72-10.48 10.88-9.80Q12.04-9.13 13.93-9.13L13.93-9.13L35.42-9.13Q37.26-9.13 38.45-9.80Q39.64-10.48 40.31-11.45Q40.99-12.42 41.23-13.58Q41.47-14.74 41.47-15.71L41.47-15.71L41.47-24.89Q41.47-25.97 42.23-26.73Q42.98-27.49 44.06-27.49L44.06-27.49Q45.14-27.49 45.90-26.73Q46.66-25.97 46.66-24.89L46.66-24.89L46.66-15.71Q46.66-13.66 45.98-11.58Q45.31-9.50 44.01-7.80Q42.71-6.10 40.88-5.02Q39.04-3.94 36.72-3.94L36.72-3.94L12.10-3.94Q9.88-4.05 8.15-5.16Q6.43-6.26 5.21-7.94Q4.00-9.61 3.35-11.66Q2.70-13.72 2.70-15.71L2.70-15.71L2.70-24.89Q2.70-25.97 3.46-26.73Q4.21-27.49 5.29-27.49L5.29-27.49Q6.37-27.49 7.13-26.73Q7.88-25.97 7.88-24.89L7.88-24.89Z" transform="translate(0 206) " fill="rgb(25, 25, 25)" stroke="rgb(25, 25, 25)" stroke-width="0.09" data-glyph-w="49.356" data-glyph-h="51.3" data-glyph-ascender="43.2" data-glyph-descender="-8.1"></path><path d="M39.85-13.12L9.88-13.12Q8.37-13.12 7.07-13.69Q5.78-14.26 4.81-15.23Q3.83-16.20 3.27-17.50Q2.70-18.79 2.70-20.30L2.70-20.30Q2.70-21.82 3.27-23.11Q3.83-24.41 4.81-25.38Q5.78-26.35 7.07-26.92Q8.37-27.49 9.88-27.49L9.88-27.49L42.66-27.49Q43.74-27.49 44.50-26.73Q45.25-25.97 45.25-24.89L45.25-24.89Q45.25-23.81 44.50-23.06Q43.74-22.30 42.66-22.30L42.66-22.30L9.77-22.30Q8.96-22.30 8.34-21.73Q7.72-21.17 7.72-20.30L7.72-20.30Q7.72-19.49 8.34-18.90Q8.96-18.31 9.77-18.31L9.77-18.31L39.64-18.31Q41.15-18.31 42.47-17.74Q43.79-17.17 44.77-16.20Q45.74-15.23 46.30-13.90Q46.87-12.58 46.87-11.07L46.87-11.07Q46.87-9.56 46.30-8.26Q45.74-6.97 44.77-5.99Q43.79-5.02 42.47-4.48Q41.15-3.94 39.64-3.94L39.64-3.94L6.91-3.94Q5.83-3.94 5.08-4.70Q4.32-5.45 4.32-6.53L4.32-6.53Q4.32-7.61 5.08-8.37Q5.83-9.13 6.91-9.13L6.91-9.13L39.85-9.13Q40.66-9.13 41.26-9.69Q41.85-10.26 41.85-11.07L41.85-11.07Q41.85-11.93 41.26-12.53Q40.66-13.12 39.85-13.12L39.85-13.12Z" transform="translate(49.356 206) " fill="rgb(25, 25, 25)" stroke="rgb(25, 25, 25)" stroke-width="0.09" data-glyph-w="49.572" data-glyph-h="51.3" data-glyph-ascender="43.2" data-glyph-descender="-8.1"></path><path d="M35.64-22.30L7.88-22.30L7.88-9.13L35.64-9.13Q37.48-9.13 38.66-9.80Q39.85-10.48 40.53-11.45Q41.20-12.42 41.45-13.58Q41.69-14.74 41.69-15.71L41.69-15.71Q41.69-16.69 41.45-17.85Q41.20-19.01 40.53-19.98Q39.85-20.95 38.66-21.63Q37.48-22.30 35.64-22.30L35.64-22.30ZM46.71-15.71L46.71-15.71Q46.71-13.72 46.06-11.66Q45.41-9.61 44.20-7.94Q42.98-6.26 41.26-5.16Q39.53-4.05 37.31-3.94L37.31-3.94L5.29-3.94Q4.21-3.94 3.46-4.70Q2.70-5.45 2.70-6.53L2.70-6.53L2.70-24.89Q2.70-25.97 3.46-26.73Q4.21-27.49 5.29-27.49L5.29-27.49L36.77-27.49Q39.10-27.49 40.93-26.41Q42.77-25.33 44.06-23.63Q45.36-21.92 46.03-19.84Q46.71-17.77 46.71-15.71Z" transform="translate(98.928 206) " fill="rgb(25, 25, 25)" stroke="rgb(25, 25, 25)" stroke-width="0.09" data-glyph-w="49.41" data-glyph-h="51.3" data-glyph-ascender="43.2" data-glyph-descender="-8.1"></path><path d="M5.29-27.49L42.44-27.49Q43.52-27.49 44.28-26.73Q45.04-25.97 45.04-24.89L45.04-24.89Q45.04-23.87 44.33-23.14Q43.63-22.41 42.66-22.30L42.66-22.30L31.81-22.30Q30.19-22.19 29.13-21.52Q28.08-20.84 27.49-19.87Q26.89-18.90 26.68-17.77Q26.46-16.63 26.46-15.71L26.46-15.71L26.46-6.53Q26.46-5.45 25.70-4.70Q24.95-3.94 23.87-3.94L23.87-3.94Q22.79-3.94 22.03-4.70Q21.28-5.45 21.28-6.53L21.28-6.53L21.28-15.71Q21.28-17.39 21.71-19.09Q22.14-20.79 23.00-22.30L23.00-22.30L5.29-22.30Q4.21-22.30 3.46-23.06Q2.70-23.81 2.70-24.89L2.70-24.89Q2.70-25.97 3.46-26.73Q4.21-27.49 5.29-27.49L5.29-27.49Z" transform="translate(148.338 206) " fill="rgb(25, 25, 25)" stroke="rgb(25, 25, 25)" stroke-width="0.09" data-glyph-w="47.736" data-glyph-h="51.3" data-glyph-ascender="43.2" data-glyph-descender="-8.1"></path><path d="M2.70-15.71L2.70-15.71Q2.70-17.77 3.38-19.84Q4.05-21.92 5.35-23.63Q6.64-25.33 8.48-26.41Q10.31-27.49 12.64-27.49L12.64-27.49L44.12-27.49Q45.20-27.49 45.95-26.73Q46.71-25.97 46.71-24.89L46.71-24.89Q46.71-23.81 45.95-23.06Q45.20-22.30 44.12-22.30L44.12-22.30L13.77-22.30Q11.88-22.30 10.72-21.63Q9.56-20.95 8.88-19.98Q8.21-19.01 7.96-17.85Q7.72-16.69 7.72-15.71L7.72-15.71Q7.72-14.74 7.96-13.58Q8.21-12.42 8.88-11.45Q9.56-10.48 10.72-9.80Q11.88-9.13 13.77-9.13L13.77-9.13L44.12-9.13Q45.20-9.13 45.95-8.37Q46.71-7.61 46.71-6.53L46.71-6.53Q46.71-5.45 45.95-4.70Q45.20-3.94 44.12-3.94L44.12-3.94L12.10-3.94Q9.88-3.94 8.15-5.02Q6.43-6.10 5.21-7.80Q4.00-9.50 3.35-11.61Q2.70-13.72 2.70-15.71Z" transform="translate(196.07399999999998 206) " fill="rgb(25, 25, 25)" stroke="rgb(25, 25, 25)" stroke-width="0.09" data-glyph-w="49.41" data-glyph-h="51.3" data-glyph-ascender="43.2" data-glyph-descender="-8.1"></path><path d="M42.34-3.94L10.10-3.94Q8.59-3.94 7.24-4.51Q5.89-5.08 4.89-6.05Q3.89-7.02 3.29-8.32Q2.70-9.61 2.70-11.12L2.70-11.12L2.70-24.89Q2.70-25.97 3.46-26.73Q4.21-27.49 5.29-27.49L5.29-27.49Q6.32-27.49 7.10-26.73Q7.88-25.97 7.88-24.89L7.88-24.89L7.88-11.12Q7.88-10.31 8.51-9.72Q9.13-9.13 9.94-9.13L9.94-9.13L42.34-9.13Q43.42-9.13 44.17-8.37Q44.93-7.61 44.93-6.53L44.93-6.53Q44.93-5.45 44.17-4.70Q43.42-3.94 42.34-3.94L42.34-3.94Z" transform="translate(245.48399999999998 206) " fill="rgb(25, 25, 25)" stroke="rgb(25, 25, 25)" stroke-width="0.09" data-glyph-w="47.628" data-glyph-h="51.3" data-glyph-ascender="43.2" data-glyph-descender="-8.1"></path><path d="M13.77-9.13L35.59-9.13Q37.42-9.13 38.61-9.80Q39.80-10.48 40.47-11.45Q41.15-12.42 41.39-13.58Q41.63-14.74 41.63-15.71L41.63-15.71Q41.63-16.69 41.39-17.85Q41.15-19.01 40.47-19.98Q39.80-20.95 38.61-21.63Q37.42-22.30 35.59-22.30L35.59-22.30L13.77-22.30Q11.88-22.30 10.72-21.63Q9.56-20.95 8.88-19.98Q8.21-19.01 7.96-17.85Q7.72-16.69 7.72-15.71L7.72-15.71Q7.72-14.74 7.96-13.58Q8.21-12.42 8.88-11.45Q9.56-10.48 10.72-9.80Q11.88-9.13 13.77-9.13L13.77-9.13ZM46.66-15.71L46.66-15.71Q46.66-13.66 45.98-11.58Q45.31-9.50 44.01-7.80Q42.71-6.10 40.88-5.02Q39.04-3.94 36.72-3.94L36.72-3.94L12.10-3.94Q9.88-4.05 8.15-5.16Q6.43-6.26 5.21-7.94Q4.00-9.61 3.35-11.66Q2.70-13.72 2.70-15.71L2.70-15.71Q2.70-17.77 3.38-19.84Q4.05-21.92 5.35-23.63Q6.64-25.33 8.48-26.41Q10.31-27.49 12.64-27.49L12.64-27.49L37.26-27.49Q39.47-27.38 41.20-26.27Q42.93-25.16 44.14-23.49Q45.36-21.82 46.01-19.76Q46.66-17.71 46.66-15.71Z" transform="translate(293.11199999999997 206) " fill="rgb(25, 25, 25)" stroke="rgb(25, 25, 25)" stroke-width="0.09" data-glyph-w="49.356" data-glyph-h="51.3" data-glyph-ascender="43.2" data-glyph-descender="-8.1"></path><path d="M7.88-24.89L7.88-15.71Q7.88-14.74 8.13-13.58Q8.37-12.42 9.04-11.45Q9.72-10.48 10.88-9.80Q12.04-9.13 13.93-9.13L13.93-9.13L35.42-9.13Q37.26-9.13 38.45-9.80Q39.64-10.48 40.31-11.45Q40.99-12.42 41.23-13.58Q41.47-14.74 41.47-15.71L41.47-15.71L41.47-24.89Q41.47-25.97 42.23-26.73Q42.98-27.49 44.06-27.49L44.06-27.49Q45.14-27.49 45.90-26.73Q46.66-25.97 46.66-24.89L46.66-24.89L46.66-15.71Q46.66-13.66 45.98-11.58Q45.31-9.50 44.01-7.80Q42.71-6.10 40.88-5.02Q39.04-3.94 36.72-3.94L36.72-3.94L12.10-3.94Q9.88-4.05 8.15-5.16Q6.43-6.26 5.21-7.94Q4.00-9.61 3.35-11.66Q2.70-13.72 2.70-15.71L2.70-15.71L2.70-24.89Q2.70-25.97 3.46-26.73Q4.21-27.49 5.29-27.49L5.29-27.49Q6.37-27.49 7.13-26.73Q7.88-25.97 7.88-24.89L7.88-24.89Z" transform="translate(342.46799999999996 206) " fill="rgb(25, 25, 25)" stroke="rgb(25, 25, 25)" stroke-width="0.09" data-glyph-w="49.356" data-glyph-h="51.3" data-glyph-ascender="43.2" data-glyph-descender="-8.1"></path><path d="M35.64-22.30L7.88-22.30L7.88-9.13L35.64-9.13Q37.48-9.13 38.66-9.80Q39.85-10.48 40.53-11.45Q41.20-12.42 41.45-13.58Q41.69-14.74 41.69-15.71L41.69-15.71Q41.69-16.69 41.45-17.85Q41.20-19.01 40.53-19.98Q39.85-20.95 38.66-21.63Q37.48-22.30 35.64-22.30L35.64-22.30ZM46.71-15.71L46.71-15.71Q46.71-13.72 46.06-11.66Q45.41-9.61 44.20-7.94Q42.98-6.26 41.26-5.16Q39.53-4.05 37.31-3.94L37.31-3.94L5.29-3.94Q4.21-3.94 3.46-4.70Q2.70-5.45 2.70-6.53L2.70-6.53L2.70-24.89Q2.70-25.97 3.46-26.73Q4.21-27.49 5.29-27.49L5.29-27.49L36.77-27.49Q39.10-27.49 40.93-26.41Q42.77-25.33 44.06-23.63Q45.36-21.92 46.03-19.84Q46.71-17.77 46.71-15.71Z" transform="translate(391.82399999999996 206) " fill="rgb(25, 25, 25)" stroke="rgb(25, 25, 25)" stroke-width="0.09" data-glyph-w="49.41" data-glyph-h="51.3" data-glyph-ascender="43.2" data-glyph-descender="-8.1"></path></g></svg></g>
        </g><g id="shape_fN7NqpvJU2" class="brand_slogan"  ref="shape_fN7NqpvJU2" key="shape_fN7NqpvJU2" transform="translate(311.07460021973,285.21103770967) rotate(0,128.80859375,76.6796875) scale(1,1)" style="cursor:move;display:inline;opacity:1;" filter="">
            <g style="display:inline"><svg xmlns="http://www.w3.org/2000/svg" version="1.1" xmlns:xlink="http://www.w3.org/1999/xlink" width="224" height="153.359375" viewBox="0 0 224 153.359375" preserveAspectRatio="none" data-parent="shape_fN7NqpvJU2"><rect fill="rgba(0,0,0,0)" width="140" height="21" x="21" y="66.1796875"></rect><g data-width="139.6171875" transform="translate(21.19140625, 0)"><path d="M1.16-13.77L1.16-15.54L6.19-15.54L6.19-13.77L4.60-13.77L4.60-6.53Q4.60-5.23 4.90-4.31Q5.19-3.39 5.71-2.81Q6.22-2.24 6.94-1.97Q7.65-1.70 8.50-1.70L8.50-1.70Q9.38-1.70 10.12-1.94Q10.86-2.17 11.39-2.73Q11.92-3.29 12.21-4.22Q12.50-5.15 12.50-6.53L12.50-6.53L12.50-13.77L10.82-13.77L10.82-15.54L15.85-15.54L15.85-13.77L14.47-13.77L14.47-6.76Q14.47-5.08 14.00-3.77Q13.54-2.47 12.73-1.59Q11.92-0.71 10.82-0.25Q9.72 0.21 8.46 0.21L8.46 0.21Q7.23 0.21 6.16-0.25Q5.09-0.70 4.29-1.57Q3.50-2.44 3.04-3.70Q2.58-4.95 2.58-6.57L2.58-6.57L2.58-13.77L1.16-13.77Z" transform="translate(0 83.1796875) " fill="rgb(0, 0, 0)" stroke="rgb(0, 0, 0)" stroke-width="0.035" data-glyph-w="15.8935546875" data-glyph-h="25.3681640625" data-glyph-ascender="20.1796875" data-glyph-descender="-5.1884765625"></path><path d="M9.43-11.32Q9.43-12.22 9.11-12.67Q8.78-13.13 8.38-13.37Q7.99-13.61 7.52-13.74Q7.04-13.86 6.57-13.86L6.57-13.86Q5.79-13.86 5.21-13.68Q4.62-13.50 4.24-13.20Q3.86-12.89 3.66-12.48Q3.47-12.07 3.47-11.62L3.47-11.62Q3.47-10.94 3.71-10.53Q3.95-10.11 4.32-9.86Q4.69-9.61 5.13-9.46Q5.58-9.32 5.99-9.18L5.99-9.18L8.06-8.50Q8.99-8.20 9.71-7.82Q10.42-7.44 10.90-6.93Q11.38-6.41 11.63-5.73Q11.88-5.06 11.88-4.16L11.88-4.16Q11.88-3.20 11.49-2.38Q11.09-1.56 10.39-0.95Q9.68-0.35 8.70-0.01Q7.72 0.34 6.55 0.34L6.55 0.34Q5.35 0.34 4.50 0.07Q3.65-0.21 3.07-0.66Q2.49-1.12 2.14-1.70Q1.79-2.29 1.60-2.90L1.60-2.90L0.82-2.90L0.82-4.67L3.40-4.67Q3.40-3.53 3.65-3.06Q3.89-2.58 4.32-2.27Q4.75-1.96 5.34-1.80Q5.94-1.64 6.65-1.64L6.65-1.64Q7.35-1.64 7.91-1.80Q8.47-1.97 8.86-2.28Q9.26-2.59 9.47-3.04Q9.68-3.49 9.68-4.05L9.68-4.05Q9.68-4.68 9.42-5.11Q9.16-5.55 8.75-5.85Q8.34-6.16 7.85-6.36Q7.36-6.55 6.91-6.70L6.91-6.70L4.67-7.33Q3.93-7.56 3.32-7.91Q2.71-8.25 2.27-8.76Q1.84-9.26 1.60-9.93Q1.36-10.60 1.36-11.48L1.36-11.48Q1.36-12.38 1.71-13.16Q2.06-13.94 2.74-14.52Q3.41-15.10 4.39-15.44Q5.37-15.77 6.63-15.77L6.63-15.77Q7.46-15.77 8.17-15.58Q8.87-15.38 9.44-15.03Q10.01-14.67 10.44-14.18Q10.88-13.68 11.18-13.08L11.18-13.08L11.95-13.08L11.95-11.32L9.43-11.32Z" transform="translate(15.8935546875 83.1796875) " fill="rgb(0, 0, 0)" stroke="rgb(0, 0, 0)" stroke-width="0.035" data-glyph-w="12.4072265625" data-glyph-h="25.3681640625" data-glyph-ascender="20.1796875" data-glyph-descender="-5.1884765625"></path><path d="M1.47-13.77L1.47-15.54L7.25-15.54Q8.32-15.54 9.28-15.27Q10.24-14.99 11.07-14.49Q11.90-13.99 12.58-13.28Q13.26-12.58 13.74-11.72Q14.21-10.86 14.47-9.87Q14.72-8.88 14.72-7.81L14.72-7.81Q14.72-6.73 14.47-5.73Q14.21-4.74 13.74-3.87Q13.26-2.99 12.58-2.28Q11.90-1.57 11.07-1.06Q10.24-0.55 9.28-0.28Q8.32 0 7.25 0L7.25 0L1.47 0L1.47-1.76L2.94-1.76L2.94-13.77L1.47-13.77ZM7.37-13.77L4.95-13.77L4.95-1.76L7.37-1.76Q8.45-1.76 9.40-2.24Q10.35-2.71 11.05-3.52Q11.76-4.34 12.17-5.44Q12.58-6.54 12.58-7.81L12.58-7.81Q12.58-9.06 12.17-10.15Q11.76-11.24 11.05-12.04Q10.35-12.85 9.40-13.31Q8.45-13.77 7.37-13.77L7.37-13.77Z" transform="translate(28.30078125 83.1796875) " fill="rgb(0, 0, 0)" stroke="rgb(0, 0, 0)" stroke-width="0.035" data-glyph-w="15.45263671875" data-glyph-h="25.3681640625" data-glyph-ascender="20.1796875" data-glyph-descender="-5.1884765625"></path><path d="M4.65 0L4.65-1.76L6.07-1.76L6.07-13.86L2.52-13.86L2.52-11.44L0.42-11.44L0.42-15.54L14.28-15.54L14.28-11.44L12.18-11.44L12.18-13.86L8.08-13.86L8.08-1.76L9.68-1.76L9.68 0L4.65 0Z" transform="translate(43.75341796875 83.1796875) " fill="rgb(0, 0, 0)" stroke="rgb(0, 0, 0)" stroke-width="0.035" data-glyph-w="14.7041015625" data-glyph-h="25.3681640625" data-glyph-ascender="20.1796875" data-glyph-descender="-5.1884765625"></path><path d="M0.98-1.24L0.98-1.24Q0.98-1.51 1.09-1.75Q1.20-1.99 1.38-2.17Q1.57-2.35 1.81-2.46Q2.05-2.56 2.33-2.56L2.33-2.56Q2.59-2.56 2.84-2.46Q3.08-2.35 3.26-2.17Q3.44-1.99 3.54-1.75Q3.65-1.51 3.65-1.24L3.65-1.24Q3.65-0.96 3.54-0.72Q3.44-0.47 3.26-0.28Q3.08-0.09 2.84 0.02Q2.59 0.12 2.33 0.12L2.33 0.12Q2.05 0.12 1.81 0.02Q1.57-0.09 1.38-0.28Q1.20-0.47 1.09-0.72Q0.98-0.96 0.98-1.24Z" transform="translate(58.45751953125 83.1796875) " fill="rgb(0, 0, 0)" stroke="rgb(0, 0, 0)" stroke-width="0.035" data-glyph-w="4.67578125" data-glyph-h="25.3681640625" data-glyph-ascender="20.1796875" data-glyph-descender="-5.1884765625"></path><path d="M14.70-11.44L12.50-11.44Q11.81-12.61 10.68-13.28Q9.55-13.95 8.15-13.95L8.15-13.95Q6.96-13.95 5.98-13.44Q4.99-12.94 4.29-12.09Q3.59-11.25 3.20-10.14Q2.81-9.02 2.81-7.79L2.81-7.79Q2.81-6.34 3.24-5.21Q3.67-4.09 4.36-3.35Q5.06-2.60 6.01-2.11Q6.96-1.61 8.15-1.61L8.15-1.61Q9.77-1.61 10.97-2.39Q12.17-3.18 13.02-4.97L13.02-4.97L14.83-4.12Q14.44-3.01 13.50-1.98Q12.57-0.95 11.20-0.32Q9.83 0.31 8.17 0.31L8.17 0.31Q6.58 0.31 5.25-0.29Q3.92-0.89 2.88-2.00Q1.84-3.11 1.29-4.62Q0.74-6.14 0.74-7.79L0.74-7.79Q0.74-9.45 1.29-10.93Q1.84-12.41 2.82-13.50Q3.81-14.59 5.18-15.22Q6.55-15.85 8.15-15.85L8.15-15.85Q9.58-15.85 10.61-15.45Q11.65-15.04 12.37-14.48Q13.09-13.92 13.62-13.27L13.62-13.27L14.70-13.27L14.70-11.44Z" transform="translate(63.13330078125 83.1796875) " fill="rgb(0, 0, 0)" stroke="rgb(0, 0, 0)" stroke-width="0.035" data-glyph-w="15.47314453125" data-glyph-h="25.3681640625" data-glyph-ascender="20.1796875" data-glyph-descender="-5.1884765625"></path><path d="M1.47-13.77L1.47-15.54L6.51-15.54L6.51-13.77L4.95-13.77L4.95-1.76L10.32-1.76Q10.48-1.76 10.64-1.84Q10.81-1.92 10.94-2.04Q11.07-2.16 11.16-2.32Q11.24-2.48 11.24-2.65L11.24-2.65L11.24-4.60L13.19-4.60L13.19 0L1.47 0L1.47-1.76L2.94-1.76L2.94-13.77L1.47-13.77Z" transform="translate(78.6064453125 83.1796875) " fill="rgb(0, 0, 0)" stroke="rgb(0, 0, 0)" stroke-width="0.035" data-glyph-w="13.2890625" data-glyph-h="25.3681640625" data-glyph-ascender="20.1796875" data-glyph-descender="-5.1884765625"></path><path d="M8.19 0.31L8.19 0.31Q6.58 0.31 5.25-0.29Q3.92-0.89 2.87-2.00Q1.83-3.11 1.28-4.62Q0.74-6.14 0.74-7.77L0.74-7.77Q0.74-9.45 1.29-10.93Q1.84-12.41 2.82-13.50Q3.81-14.59 5.18-15.22Q6.55-15.85 8.19-15.85L8.19-15.85Q9.84-15.85 11.22-15.22Q12.59-14.59 13.58-13.50Q14.56-12.41 15.10-10.93Q15.65-9.45 15.65-7.77L15.65-7.77Q15.65-6.09 15.10-4.62Q14.55-3.15 13.56-2.05Q12.57-0.95 11.20-0.32Q9.83 0.31 8.19 0.31ZM8.19-1.60L8.19-1.60Q9.41-1.60 10.40-2.10Q11.39-2.60 12.09-3.45Q12.79-4.30 13.17-5.41Q13.55-6.53 13.55-7.77L13.55-7.77Q13.55-9.04 13.13-10.23Q12.71-11.41 11.97-12.23Q11.23-13.05 10.24-13.50Q9.26-13.95 8.19-13.95L8.19-13.95Q6.97-13.95 5.98-13.44Q4.98-12.94 4.29-12.09Q3.59-11.25 3.21-10.13Q2.83-9.00 2.83-7.77L2.83-7.77Q2.83-6.34 3.25-5.21Q3.67-4.09 4.36-3.35Q5.06-2.60 6.01-2.10Q6.97-1.60 8.19-1.60Z" transform="translate(91.8955078125 83.1796875) " fill="rgb(0, 0, 0)" stroke="rgb(0, 0, 0)" stroke-width="0.035" data-glyph-w="16.37548828125" data-glyph-h="25.3681640625" data-glyph-ascender="20.1796875" data-glyph-descender="-5.1884765625"></path><path d="M1.16-13.77L1.16-15.54L6.19-15.54L6.19-13.77L4.60-13.77L4.60-6.53Q4.60-5.23 4.90-4.31Q5.19-3.39 5.71-2.81Q6.22-2.24 6.94-1.97Q7.65-1.70 8.50-1.70L8.50-1.70Q9.38-1.70 10.12-1.94Q10.86-2.17 11.39-2.73Q11.92-3.29 12.21-4.22Q12.50-5.15 12.50-6.53L12.50-6.53L12.50-13.77L10.82-13.77L10.82-15.54L15.85-15.54L15.85-13.77L14.47-13.77L14.47-6.76Q14.47-5.08 14.00-3.77Q13.54-2.47 12.73-1.59Q11.92-0.71 10.82-0.25Q9.72 0.21 8.46 0.21L8.46 0.21Q7.23 0.21 6.16-0.25Q5.09-0.70 4.29-1.57Q3.50-2.44 3.04-3.70Q2.58-4.95 2.58-6.57L2.58-6.57L2.58-13.77L1.16-13.77Z" transform="translate(108.27099609375 83.1796875) " fill="rgb(0, 0, 0)" stroke="rgb(0, 0, 0)" stroke-width="0.035" data-glyph-w="15.8935546875" data-glyph-h="25.3681640625" data-glyph-ascender="20.1796875" data-glyph-descender="-5.1884765625"></path><path d="M1.47-13.77L1.47-15.54L7.25-15.54Q8.32-15.54 9.28-15.27Q10.24-14.99 11.07-14.49Q11.90-13.99 12.58-13.28Q13.26-12.58 13.74-11.72Q14.21-10.86 14.47-9.87Q14.72-8.88 14.72-7.81L14.72-7.81Q14.72-6.73 14.47-5.73Q14.21-4.74 13.74-3.87Q13.26-2.99 12.58-2.28Q11.90-1.57 11.07-1.06Q10.24-0.55 9.28-0.28Q8.32 0 7.25 0L7.25 0L1.47 0L1.47-1.76L2.94-1.76L2.94-13.77L1.47-13.77ZM7.37-13.77L4.95-13.77L4.95-1.76L7.37-1.76Q8.45-1.76 9.40-2.24Q10.35-2.71 11.05-3.52Q11.76-4.34 12.17-5.44Q12.58-6.54 12.58-7.81L12.58-7.81Q12.58-9.06 12.17-10.15Q11.76-11.24 11.05-12.04Q10.35-12.85 9.40-13.31Q8.45-13.77 7.37-13.77L7.37-13.77Z" transform="translate(124.16455078125 83.1796875) " fill="rgb(0, 0, 0)" stroke="rgb(0, 0, 0)" stroke-width="0.035" data-glyph-w="15.45263671875" data-glyph-h="25.3681640625" data-glyph-ascender="20.1796875" data-glyph-descender="-5.1884765625"></path></g></svg></g>
        </g>
  </svg>